/* XPM */
static char *_1202_cfdfba1b9a4da64f35f1f6484c79029d13f2ebf7cac6c4df0838f870d7f4cab8[] = {
/* columns rows colors chars-per-pixel */
"64 64 242 2 ",
"   c #050402",
".  c #0A0604",
"X  c #0B0905",
"o  c #0B0609",
"O  c #0D0A0A",
"+  c #070807",
"@  c #110906",
"#  c #120C0A",
"$  c #190F0E",
"%  c #150404",
"&  c #18100F",
"*  c #0D0B11",
"=  c #120E13",
"-  c #0C1317",
";  c #141214",
":  c #1B1213",
">  c #14141B",
",  c #1B191F",
"<  c #18171D",
"1  c #32140E",
"2  c #251A1C",
"3  c #2A1D1D",
"4  c #251617",
"5  c #31130F",
"6  c #3B231D",
"7  c #151623",
"8  c #161B24",
"9  c #1A1A24",
"0  c #161C2A",
"q  c #1B1D2B",
"w  c #1A1721",
"e  c #1A1E31",
"r  c #241D23",
"t  c #221F2B",
"y  c #1D212D",
"u  c #1A2124",
"i  c #1E2232",
"p  c #1B2536",
"a  c #22222D",
"s  c #2B252C",
"d  c #2A2528",
"f  c #3B2A2E",
"g  c #352221",
"h  c #232533",
"j  c #292632",
"k  c #252935",
"l  c #2B2A35",
"z  c #252539",
"x  c #26293A",
"c  c #2B2C3B",
"v  c #29273B",
"b  c #322D35",
"n  c #312E3B",
"m  c #3D2E31",
"M  c #34313C",
"N  c #3B3338",
"B  c #2C303F",
"V  c #451E15",
"C  c #511E13",
"Z  c #48261C",
"A  c #55291C",
"S  c #4B2A22",
"D  c #472A27",
"F  c #552B24",
"G  c #4A332D",
"H  c #593328",
"J  c #412E30",
"K  c #4E3A3C",
"L  c #483638",
"P  c #533D3E",
"I  c #5A3D3C",
"U  c #563735",
"Y  c #673929",
"T  c #693C34",
"R  c #713C34",
"E  c #6B3428",
"W  c #55413E",
"Q  c #5C413D",
"!  c #594136",
"~  c #684439",
"^  c #784838",
"/  c #7C523D",
"(  c #7A513A",
")  c #70432A",
"_  c #343443",
"`  c #393643",
"'  c #3B3945",
"]  c #2C2F40",
"[  c #4D3E42",
"{  c #423D46",
"}  c #543E43",
"|  c #593E42",
" . c #563E4A",
".. c #4A434A",
"X. c #544143",
"o. c #5B4245",
"O. c #54414A",
"+. c #5B444A",
"@. c #5D494C",
"#. c #55494A",
"$. c #4A4652",
"%. c #544B52",
"&. c #544A53",
"*. c #5B5257",
"=. c #634A4A",
"-. c #644745",
";. c #764D44",
":. c #7B5243",
">. c #74524C",
",. c #795649",
"<. c #654B53",
"1. c #6D5755",
"2. c #775A57",
"3. c #7D625D",
"4. c #74605C",
"5. c #5C5960",
"6. c #795E63",
"7. c #695E64",
"8. c #6C6368",
"9. c #746365",
"0. c #7A6466",
"q. c #7E6A66",
"w. c #7B6669",
"e. c #7D696B",
"r. c #74676A",
"t. c #7C6E71",
"y. c #776C72",
"u. c #7D7173",
"i. c #787679",
"p. c #834C3C",
"a. c #87553C",
"s. c #834D45",
"d. c #835343",
"f. c #835B4B",
"g. c #8B5B4B",
"h. c #885746",
"j. c #925B49",
"k. c #845D54",
"l. c #885E56",
"z. c #945B51",
"x. c #8B6149",
"c. c #94634C",
"v. c #9B674B",
"b. c #82645C",
"n. c #8A6558",
"m. c #936353",
"M. c #9C6B54",
"N. c #976859",
"B. c #9D725B",
"V. c #99715A",
"C. c #A36E4D",
"Z. c #A46B57",
"A. c #A37254",
"S. c #A4735C",
"D. c #AD7A5C",
"F. c #A9775B",
"G. c #B57A5B",
"H. c #A8704D",
"J. c #816562",
"K. c #826A65",
"L. c #826C6B",
"P. c #866A67",
"I. c #966E62",
"U. c #83716D",
"Y. c #8A716A",
"T. c #9A7666",
"R. c #827272",
"E. c #82797B",
"W. c #957B74",
"Q. c #846F73",
"!. c #A57463",
"~. c #AC7464",
"^. c #A47A63",
"/. c #AC7D63",
"(. c #AD7D6B",
"). c #A3796A",
"_. c #B37C63",
"`. c #B77D68",
"'. c #AE7D71",
"]. c #B6815D",
"[. c #AE805E",
"{. c #9B8179",
"}. c #AC836C",
"|. c #A7816B",
" X c #B48263",
".X c #BA8465",
"XX c #BD8965",
"oX c #B3846B",
"OX c #BB856B",
"+X c #BC8A6A",
"@X c #B78A6B",
"#X c #BE916C",
"$X c #AA8775",
"%X c #BB8A73",
"&X c #B78876",
"*X c #BD9278",
"=X c #C28C6A",
"-X c #C38966",
";X c #C3916C",
":X c #C9956E",
">X c #C48C74",
",X c #C49374",
"<X c #CA9575",
"1X c #C4947B",
"2X c #CB967A",
"3X c #CD9A7C",
"4X c #C69A77",
"5X c #D29B78",
"6X c #D2A47C",
"7X c #CDA076",
"8X c #7D7E83",
"9X c #887C80",
"0X c #988987",
"qX c #938C90",
"wX c #A58A85",
"eX c #B99788",
"rX c #A59A99",
"tX c #AA9085",
"yX c #B4A49F",
"uX c #A9A4A5",
"iX c #B8AEAC",
"pX c #C49482",
"aX c #CC9B83",
"sX c #C89988",
"dX c #D29C82",
"fX c #D29F8C",
"gX c #C8A287",
"hX c #D5A888",
"jX c #D9B49A",
"kX c #D0AE93",
"lX c #E3B690",
"zX c #CDB5AC",
"xX c #CEB6AD",
"cX c #E0BBA1",
"vX c #D9C2B6",
"bX c #EACCB4",
"nX c #D9C9C8",
"mX c #D0C8C7",
"MX c #E7D8D5",
"NX c #EFD4C8",
"BX c #F8E3D8",
"VX c #F0E7E4",
/* pixels */
"0.0.0.0.0.0.0.0.0.0.0.0.0.0.0.0.3.3.9.0.r.9.6.6.l.k.k.l.b.b.3.2.9.q.1.7.6.<. . .L K K K W P I | L f 4 # . . X + O # $ : ; ; : ; ",
"0.0.0.9.0.0.0.r.r.0.0.0.0.0.0.0.6.0.0.9.r.r.0.0.J.k.k.l.n.K.b.2.2.4.0.w.7.<.<.[ L K W W W P I | L D 2 $ X + + + O O $ = : & ; ; ",
"9.0.0.0.0.0.0.0.0.0.0.0.0.0.0.9.0.0.r.6.6.r.0.b.,.n.).&X*XtX*X$XY.4.>.2.2.<.+.| K K W K P P I | L f 2 $ .     + . X # # ; # # # ",
"0.0.0.r.r.q.0.r.0.0.0.0.0.0.6.0.6.6.6.w.0.6.2.b.I.}.*X1X4X7XyXyXzXyXY.1.2.<. . .K K ..W W } | | [ f 4 # X +       . o O X O O O ",
"0.9.0.0.w.0.0.0.0.0.w.6.0.0.0.0.w.6.6.L.3.4.3.T.&X*X;X#X#X4X7X7XbXBXxXY.1.<.<.| K [ X.W X.} | | L f 2 # o o         .   X X + + ",
"0.0.r.0.0.r.w.w.w.w.w.r.0.0.0.0.L.6.6.w.3.3.Y.$X}.3X6X:X7X7X6XhXbXBXBXzXJ.-.-.| K W X...} } } | L f 2 #                     + + ",
"r.w.0.w.0.w.w.0.w.w.6.w.w.6.0.0.w.w.0.3.3.Y.|.&X1XlXhX:X;X:X6XlXbXbXNXNXeX,.-.I P X.[ O.X.} o.X.[ f 4 $                       + ",
"0.0.r.0.w.w.0.r.w.6.w.w.w.w.0.w.0.e.0.3.n.T.}.}.hXcXlX:X:X7X7X6XbXbXjXcXxXW.~ | P [ O.O. .} | X.L f 4 = o                     + ",
"w.0.r.w.0.w.w.w.w.w.w.w.w.w.w.6.0.q.3.3.I.T.|.*XhXhX6X2X2X:X<X<XhXcXjXkXjXeX,.! W X.O.O.O.} X.X.K f r #                         ",
"w.0.w.w.w.r.w.w.w.w.6.w.w.w.w.w.w.q.3.n.B.|.oX1X5X3X3X2X2X2X5X3XgXjXkXkXvXgXI.! X.X. ...O.O.o.P K m 2 #                         ",
"r.0.w.w.w.w.w.w.w.w.w.w.w.w.w.w.0.3.b.P.T.}.@X2X,X,X,X2X5X3XdXdXaXhXhXhXcXgX|.Q o.} O. .} O.X.X.K f 2 #                       + ",
"0.w.r.w.w.w.w.e.w.6.w.w.w.6.w.w.0.3.b.N.F.}.XX;X,X,X2X3XdXdXdXdXaXhXgX3XkX*X*X( I | O.O.O.O.Q W K f 2 # X                   + + ",
"w.w.w.w.w.y.w.w.w.w.6.L.w.w.w.w.0.3.n.V.F. X-X:X=X,X4X2X3X3X5X5XgXdX2X,XhX,XaXb.~ }  . . .+.W W K f 3 $ . +         .   .   . X ",
"w.w.r.w.w.w.w.w.w.w.w.w.w.w.w.w.w.3.P.V.B.].;X:X=X;X#X,X,X4X<X<X<X,X,X>X3X#XeXI.-.o. . .O.| o.W K f 3 # . + +   . .     . . X O ",
"q.w.w.w.w.w.w.e.L.w.w.w.w.w.w.w.e.3.n.V.M.[.-X:X;XXX#X#X;X;X:X:XXXOX=X=X;X#X&XT.Q  . . . .X.Q Q L J 3 # o .   . . .   .   X X O ",
"r.w.w.q.w.e.e.w.w.w.w.w.w.w.w.w.e.0.n.m.v.H.].].;X=X#XXXXX=X=X,XOXOX=X-X+X#XoX$XT -.=. . .o.W Q U J r $ . . +   .   . . o . O O ",
"e.w.e.r.w.e.e.w.e.w.e.e.w.w.w.w.w.J.l.h.a.v.H.XX`.`.-X-X-XG.G.OXOX+X].XX;X#X}.}.>.o.o.O.+.} +.W [ J r $ X   X +     . . % . % X ",
"w.e.w.e.e.w.w.e.L.w.e.w.w.w.w.w.6.b.f.h.a.v.S. X-X`.G.G.G.-X@X`.`. X X XXXXX X}.,.! W K &.[ K @.U m 4 $ X X X + + + . . . . O @ ",
"e.e.e.w.e.w.e.w.e.e.e.w.Q.w.w.6.Q.b.s.d.a.a.v.F.~.~.G.-X-XG.`.OX*X+X X].].XX@X}.x.! =.P O.@.W O.K J 3 $ X     X X . . . X O @ O ",
"r.q.r.e.q.e.w.e.e.e.e.e.w.w.w.Q.6.6.>.p.a.a.c.m.~.G.`.>X-XG.>XfXsX%X@X@X]. XoX}.n.U -.+.} +.#.W K J 3 $ X + X X X . % . @ O @ @ ",
"w.e.e.w.e.e.e.w.w.L.w.e.w.w.L.w.w.3.:.( a.C.!.!.~.`.`.~.G.>X@XB.x./ x.[..XXXoX/.x.I I | @.K X.@.K J 3 $ % . X X . X @ X @ @ @ # ",
"e.w.r.e.e.r.w.e.w.w.e.e.w.Q.w.6.L.3.,.h.v.Z./.(.`.>X>X`.OX@XN.~ ~ ) ( A..XXX.XoXV.T.>.U @.W X.#.K J 3 $ X + X + X + @ @ @ @ # O ",
"q.r.e.w.e.w.e.w.y.Q.w.w.Q.w.w.Q.e.2.:./ ^ ) ( l.9XdX>X%X`.`.!.I.V.V.B.[.XXXX_._.).).6.U o.=.#.W } J 3 $ X + + + . . X @ @ @ O O ",
"e.e.w.r.e.e.w.e.w.L.w.w.L.w.w.Q.L.4.,.( Y C A ^ !.'.pX`._.~.V.n.n.T.[.[.OX-X`.~.~.E -.-.W W #.W K J 3 $ X X + X . X X @ @ # @ @ ",
"e.r.e.e.e.e.e.L.w.e.e.e.w.Q.w.w.0.J.,.:.Y ^ :.;.f.!.'.~.H.Z.^ ,.3.( V.C.[.;XXXD.~.N.>.| | o.W #.W m 3 & X X X + . . X @ @ @ # # ",
"e.e.e.e.e.e.e.w.e.w.w.e.w.Q.w.w.L.W.I.f.) a./ T ~ / Z.`.a.p.:.N.|.V.x.B.XXXX.X+XpX'.2.T | @.X.X.W G 3 & X X X X . X % @ @ X # # ",
"e.e.e.e.e.e.e.e.w.e.e.e.w.w.w.e.K.1.,.f.( ( :.n.T E s.>Xj.Y / / ( |.n.[.=X-X=X_.~.).k.-.o.} P o.W f 3 & X X X + X . @ X O # # # ",
"e.e.e.e.e.e.e.e.e.w.e.e.L.w.L.w.w.I H f.d.Y ^ x.s.E s.dX`.x.x.( H *X@X#X:X=X=XG.z.!.2.T -.| P +.W f 3 ; X X X X . . % @ # # # # ",
"y.e.e.e.e.t.t.L.w.e.e.e.w.L.w.e.K.2.T :.h.Y ! A I.^ M.dX>XG.m.m.m.&X%X.X5X-X-XOX&X&X>.U -.=.o.X.L m 3 & O X X X + X X O @ # # # ",
"e.e.e.e.L.e.e.e.w.e.w.L.L.w.L.w.L.Y.;.f.M.^ ;.) I.h.Z.2X>X`.g.c.V.!.`..X6X-XG.+XeX&X>.I | o.+.O.W m 3 & O X X X X X X @ # @ # X ",
"e.e.e.t.e.e.L.L.e.w.e.w.w.w.w.6.P.J.;.h.^.m.f.n.l.h.M.>X<X<X_.S.m.S.=X<X:X-X].].(.).;.I | | @.| K G 3 & @ X X X . . @ @ @ O X @ ",
"e.e.e.e.e.e.t.e.w.y.e.e.w.Q.w.L.L.J.l.,./.m.) ( m.N.Z.>X<X<X3X,X1X1X<XhX=XXXXX X*X).-.| =.| =.K W m g & @ X X X . X @ X @ X X X ",
"L.w.L.t.e.e.e.e.e.e.e.e.e.e.e.q.w.Q.b.f.S._.F.C.A.z.N.pXaX%X2X<X1X3X,X5X-X].-X].T.T.! @.@.U o.=.L m 3 $ % @ @ X X X % + + . . + ",
"w.L.w.L.L.e.e.t.e.e.e.e.e.q.q.w.w.L.3.x.M.oXXX X_.j.N.pXaX>XG.C.%X2X:X=XG.].].F.*XT.! W @.@.+.X.} J g : # @ @ @ @ X X + X + + + ",
"K.e.w.w.e.y.w.w.e.e.e.e.e.e.q.e.e.L.b.,.c./.=XOXj.h.(.pXpXdX_.c.F.oX#XG.H.].].D.|.3.o.X.X.#.O.} [ J d $ % @ @ @ X X X X + . + + ",
"L.e.L.w.L.L.L.t.e.e.e.e.e.q.q.q.w.L.J.f.d.C..XF.c.a.~.sXsXfX+XM.c.M.D.C.H. XoX|.! G X.#...#.#.&.[ J 3 $ # @ # @ X @ . X + +     ",
"e.q.L.e.e.e.L.w.L.e.e.L.K.q.K.q.e.6.P.l./ c.S.v.j.( N.sX&Xg.N.`.x.x.C.v.C.}.}.}.G 3 m ' { $.$.{ O.m d $ # % @ % % . . . o   . + ",
"e.e.e.L.L.w.w.L.L.L.L.J.K.q.J.K.L.w.K.b.( / h.p.p.p.s.!.z.R z.&XF.V.v.B.A. X$X$XQ 3 b M ' ' $. ...m 3 : $ # @ % X . . . .   .   ",
"q.u.e.u.w.Q.L.J.L.P.K.K.J.K.K.J.q.q.K.b.;.( p.^ j.s.R R s.I.'.'.}.B.M.[.[.F.}.$XG r j c _ ] $.5.{ m d : # @ # $ X X . . .   . . ",
"t.e.L.e.w.L.L.L.L.L.L.K.K.K.K.q.q.0.q.n.,.:.p.s.h.s.R A R N.!.'.S.M.v. X XB.$X{.P d a v ] e c { %...m r $ o o = O % . .   .   . ",
"u.q.L.q.e.e.L.L.L.P.L.L.J.6.L.L.e.0.q.3.,.,.x.x.p.R p.p.z.z.~.!.( ) G.G.F.F.T.Y.! d k k x h q n b { %.*...s ; O = + o o   . . . ",
"u.e.u.L.L.L.L.L.K.K.J.L.Q.Q.L.0.9.u.U.G D ,.b.n.A E R z.Z.z.z.z.A.C..XH.A.V.V.{.m d k k k h t l N M b ' $.*.` 8     * o     o . ",
"e.e.u.u.L.L.L.L.L.L.L.Q.L.w.r.u.u.r.*.4 6 4.2.!.z.s.p.z.~.~.'.'.>X=X].C.C.V.,.{.f s k i z s t j l M ` ` ..$.$.' t *     . o . . ",
"u.u.q.e.L.L.L.L.L.L.L.L.e.w.e.t.8.N 2 @ g =.;.n.Z.j.p.j.Z.~.'.pX4X,XG.j.B.V.n.{.3 s k i z j t j c M M _ ` _ $.$.&.c *     . o . ",
"L.t.L.t.L.L.L.L.e.Q.w.r.L.9Xy.&.b r = # 4 J -.( N.z.j.z.~.`.%X%X1X>X`.v.S.x.{.{.2 k p p p x a j l z j c _ _ ' { $.$.' <       o ",
"t.t.u.L.L.L.L.L.L.t.L.Q.t.7...N a , ; d 2 g -.-.N.Z.Z.v.`.>XaXaXaXOXoX/.B.~ eX0X, B p p p i t j h c _ c x ] _ ' ' ..$...j     * ",
"L.u.L.Q.L.L.P.L.L.t.L.y.*.N s b s > * 9 2 4 G ~ s.Z.Z.G.>X<X2X1X1X&X(./.x.,.vXu., B p 0 p y q h ] ] ] z ] _ _ B ' ] ` $.{ >   o ",
"u.L.t.L.L.L.L.L.w.Q.y.O.b b b a a w < < 2 3 g ;.s.z.Z.Z.-X>X,X1X%XoXB.T.~ Y.BX%., B u 0 p 8 7 y x p x c x x B _ ] ' B l b a O   ",
"Y.U.q.U.R.t.q.u.E.8...b b M b a s , * ; s & G q.! f.c.~.~.>XOX&X}.F.x.,.! yXmXd t z q e i 7 > q ] ] x k B k k k B k c l l s   O ",
"K.K.U.q.q.t.y.i.8...N M M l s l , ; * u d ; b 4.Z / h.Z.S.(.'.(.}./ ( ! 1.MXrXu a i q q t 7 7 e h c x k k k k B B k B b l l + O ",
"L.L.U.e.q.u.u.r.%.N l M M l s j > > + u u - N {.1 T ^ z.z.N.N.N.^ H ( 6 u.VXi.u h h q q t 7 w t i k h k k k k B B k B B b b - O ",
"U.U.U.U.U.u.8...b M b l M c h q > > * < u u d rX1 6 T T ) ( ~ ) A H ~ 6 yXVX5.8 z t q q q 0 w q q p h k l k y k B l B M l M < O ",
"L.q.U.u.u.4.#.l l M M l k c h w - ; - - u u O uXX.% S F A A F Z V H Z 1.MXmX$.8 h y y q q q t q q z h k k h k k x k z j k M , O ",
"3.U.U.u.u.*.N s b b c l k l a 8 ; - - - u u * rXK.% Z Z A A Z V Z A 6 tXVXiXB p i y q i q t h t h h i h l k y k x z z j h M d * ",
"q.U.U.u.u.#.l l l l k c k a q 9 > - - - - u < 9X0Xg 1 S G S S V H Z 1.0XxXuXu p h q e y q a z t z h q i k a p l k v z n l ` l ; ",
"U.U.q.u.E.#.d k c n c k k z y 9 - - - 0 8 - 7 O.0XU % A H S A S Z G iXr.E.8X8 x x e e q 7 q s q h a q y k a a B h z h c l M b - ",
"Y.U.e.u.E.$.a s k k x k h a q > ; ; 8 w 8 q t r 9X9X$ V F F F F D Y.nXmX7.h p i e e z i t q t t h 8 8 h h h h i q p z v c _ b > ",
"q.U.U.R.t.L w a a h k h h i q 7 , , 9 q q 9 7 : <.9X5 5 F D E F U rXnXnXrX] h i e e 0 0 q t h k h 0 q y a u y i i x z v c M b < ",
"3.Y.U.R.y.M , a 9 q h z z q q > w 9 9 9 q q w < 3 wXk.V F V F F ~ nXMXnXuXu y k z e 7 7 0 t z z i q u h u u y q h ] z v n n n w ",
"U.L.L.R.E...9 t w q h h h a 9 7 w w 9 q q t q t s uX9X .F F C T >.nXMXnXi.> y p z e e q q i t t q 7 0 y q y a i h v z v v n _ r ",
"Y.K.K.U.E...r q 7 9 a h h a w < 8 9 8 q e q q w f uXzX9XT R R s.>.zXnXmX*.a k y i i e e y y y y q 7 q q y a k h t z z v v n n r ",
"K.U.U.U.u.{ 7 9 9 q h l l a , > 8 8 u i e q q w w iXvXxX>.^ z.;.T {.nXmX' k h p h i z e q u i h i 9 8 q u y k i z z v v v n _ a ",
"K.K.U.U.u.L = 7 q q q k j a w = - 8 0 0 q e q q 7 yXNXxXl.R l.R I wXMXiXd a u c p z h q q i h h y 8 q 8 8 8 h t i z z z j v n j ",
"Y.Y.K.L.L.{ > = q 8 q h v t 7 > 7 8 0 0 e e e q = uXMXxXP.R s.R >.zXBXqX2 l a h z v e e i h i q q 0 y 8 7 7 q e i z z z z v ` b "
};
