/* XPM */
static char *dd36e6d034d746dadab9c04029a7a750A75x0y5WxsyE5JVC[] = {
/* columns rows colors chars-per-pixel */
"64 64 255 2 ",
"   c #000906",
".  c #061717",
"X  c #171A1C",
"o  c #0D0E12",
"O  c #2F0E15",
"+  c #12261B",
"@  c #071924",
"#  c #181D29",
"$  c #072528",
"%  c #182628",
"&  c #18322D",
"*  c #0A2B34",
"=  c #172A34",
"-  c #093439",
";  c #183638",
":  c #26292A",
">  c #36292A",
",  c #262B36",
"<  c #352D34",
"1  c #233B3C",
"2  c #2B3C3D",
"3  c #273438",
"4  c #373839",
"5  c #30322C",
"6  c #322324",
"7  c #4E0D11",
"8  c #68171C",
"9  c #6A0D13",
"0  c #4F1425",
"q  c #74132C",
"w  c #46393A",
"e  c #583738",
"r  c #4F2C2C",
"t  c #772737",
"y  c #693637",
"u  c #793737",
"i  c #6E292E",
"p  c #5A231A",
"a  c #2B453B",
"s  c #35443B",
"d  c #1D423B",
"f  c #46443A",
"g  c #584B3D",
"h  c #6C4A38",
"j  c #183B45",
"k  c #0C3746",
"l  c #233C43",
"z  c #2A3B46",
"x  c #363C45",
"c  c #243653",
"v  c #453C43",
"b  c #593845",
"n  c #482A42",
"m  c #72354A",
"M  c #1B4347",
"N  c #1C4A56",
"B  c #1A5158",
"V  c #2C434B",
"C  c #284748",
"Z  c #384749",
"A  c #38524D",
"S  c #274955",
"D  c #384A54",
"F  c #2B5459",
"G  c #375659",
"H  c #2A554E",
"J  c #3A645D",
"K  c #2A5664",
"L  c #3B5C63",
"P  c #365965",
"I  c #2F4F65",
"U  c #396468",
"Y  c #396877",
"T  c #2E6572",
"R  c #484848",
"E  c #544849",
"W  c #464C54",
"Q  c #574D53",
"!  c #475758",
"~  c #5C5A5C",
"^  c #575657",
"/  c #525549",
"(  c #7B4747",
")  c #65554A",
"_  c #684B57",
"`  c #764C55",
"'  c #635B5B",
"]  c #665757",
"[  c #7B5657",
"{  c #664949",
"}  c #48635D",
"|  c #58625A",
" . c #5B654A",
".. c #67645A",
"X. c #796A59",
"o. c #72664E",
"O. c #475A65",
"+. c #575C65",
"@. c #505D78",
"#. c #675C63",
"$. c #755568",
"%. c #486668",
"&. c #546463",
"*. c #546B6C",
"=. c #596569",
"-. c #57746B",
";. c #486B75",
":. c #566A76",
">. c #4C747C",
",. c #497577",
"<. c #5C747D",
"1. c #557679",
"2. c #427869",
"3. c #646364",
"4. c #6A6464",
"5. c #69696A",
"6. c #736B6C",
"7. c #766768",
"8. c #65746C",
"9. c #77746B",
"0. c #686B73",
"q. c #766D75",
"w. c #677676",
"e. c #7C7373",
"r. c #78767A",
"t. c #941838",
"y. c #871131",
"u. c #872837",
"i. c #853938",
"p. c #942A39",
"a. c #AF3134",
"s. c #9F1E0F",
"d. c #88433D",
"f. c #A84237",
"g. c #C2473E",
"h. c #961D43",
"j. c #992847",
"k. c #993746",
"l. c #8C314D",
"z. c #A42A4A",
"x. c #A72A53",
"c. c #AA3857",
"v. c #B63A5A",
"b. c #AD324B",
"n. c #B43769",
"m. c #A02A54",
"M. c #C73B69",
"N. c #894847",
"B. c #954748",
"V. c #985755",
"C. c #905252",
"Z. c #A65759",
"A. c #AE4856",
"S. c #886E56",
"D. c #A9675D",
"F. c #8E5766",
"G. c #BA4667",
"H. c #BD4874",
"J. c #AD536A",
"K. c #88686A",
"L. c #877869",
"P. c #977769",
"I. c #847B7C",
"U. c #857778",
"Y. c #97797B",
"T. c #906B70",
"R. c #A9666A",
"E. c #B66768",
"W. c #A77B79",
"Q. c #B97976",
"!. c #B2746B",
"~. c #C8557A",
"^. c #CA4B70",
"/. c #CA7275",
"(. c #CA4E57",
"). c #56817A",
"_. c #67837A",
"`. c #7A8372",
"'. c #898479",
"]. c #978A75",
"[. c #948A72",
"{. c #AC8C77",
"}. c #C5887C",
"|. c #3A7588",
" X c #356C82",
".X c #487986",
"XX c #587A86",
"oX c #4A7389",
"OX c #667C89",
"+X c #797C82",
"@X c #69788F",
"#X c #4E5780",
"$X c #887D84",
"%X c #967A85",
"&X c #8C728A",
"*X c #B07384",
"=X c #CB5981",
"-X c #D25485",
";X c #D7688E",
":X c #E86E96",
">X c #F274A4",
",X c #3C8795",
"<X c #4B858A",
"1X c #588589",
"2X c #468A98",
"3X c #588A95",
"4X c #579198",
"5X c #529096",
"6X c #668789",
"7X c #798688",
"8X c #698895",
"9X c #768997",
"0X c #669497",
"qX c #759499",
"wX c #6E948B",
"eX c #5B93A5",
"rX c #7897A8",
"tX c #6D93A4",
"yX c #79A2AB",
"uX c #6CA0A8",
"iX c #8B8384",
"pX c #888688",
"aX c #958888",
"sX c #989489",
"dX c #878993",
"fX c #968C94",
"gX c #8B9397",
"hX c #989698",
"jX c #8A938F",
"kX c #A68A87",
"lX c #A69788",
"zX c #B49985",
"xX c #A49698",
"cX c #B38F93",
"vX c #99A28E",
"bX c #ACA695",
"nX c #B6A796",
"mX c #B3A993",
"MX c #989BA2",
"NX c #8497A9",
"BX c #A69CA2",
"VX c #B294A0",
"CX c #93A5AD",
"ZX c #A7A4A8",
"AX c #ACADAB",
"SX c #D0918B",
"DX c #E8918F",
"FX c #C5AA97",
"GX c #CCB196",
"HX c #E8A89B",
"JX c #F985B1",
"KX c #CEB2AB",
"LX c #ECB3AC",
"PX c #E8C5B3",
"IX c #CCD5C1",
/* pixels */
"h V.f./.HXQ.!.HXHXHX}.}.IXIXnX{.{.S.S.{.zX{.S. .f a  .H T K K N c # 3 W V + sXGXnXFXSXkX+.O.;.<X>.U F . ).mXmXmXvXmXhXU.+ s W ! ",
"E.!.Z.E.DX!.LXLXLXDXGX{.GXPXFXKXGX{.S.PXGXGXzX[.o.`.H ).@XtXoXI # x x $ . a bXAXlXzXkXU...6X<X).<X>.*.C `.mXmXmXmXvXbXvX4.  : o ",
"}.D.Z.d.B.DXLXHXDX}.HX!.R.kXFXLX{.[.[.PXGXzXzXS.'.7X2.CXrXyX8XoXI z l G } -.`.vXbX'.L./ *.6X<X,X>.>.1.! ).[.mXmXvXmX].].e...pX .",
"d.d.p V.V.SXLXHXDX}.}.f.!.Y.KXFX{.[.{.GXzX{.{.o.8.-._.CXyX3X8XXX@.j G 6XNXwX-.} ../  .& -.1X5X5X<X,.-.! A [.[.{.{.[.[.[.9.AXbXbX",
"f.!.V.V.N.SXDXSX}.}.f.D.SXP.lXnX[.h GXGX{.{.S.g / s w.rXNX0X1X;.F - XX0XwX_.).A + s  .a 2.1X<X).<X,.%.! s 9.[.[.[.S.[.o.S.mXlXlX",
"DX}./.C.R.Q.V.E./.D.h V.{.{. .`. .f {.GX{.X.g  .9.8.w.qX8XqX;.;.P M 0XyXuX_._.-.& 8._.2.H <X<XY U %.G a + f S.[.[.S.o.g ].FXFX].",
"g./.Z.N.SX;XR.i d./.}.!.S.g  .'.`. .[.[.`.o.L.bXvX7X-.6X<.<.L L - F tXtX6X6X-.C A wX_.-.d %.XX;.G ! C & + & g  .o.h p S.GXmXlX[.",
"a.p.u N.kXW.( C.SXSX}./.{.h vXvX[.o.g [.[.{.mXvXjX9.Z *.<.L S j . F 8XqXOX<.O.1 %.).1.%.H - ;.L G V * ; A } A + r h h S.nXlX].'.",
"d.d.{.P.) e r ( SXSX/.!.!.C.X.jX'...[.mXvXmX[.sX`.w.Z $ C = = j K j oXXX;.S c . S XXU H d . F z = . S ).).)._.}  .{.{.W.[.sX9. .",
"9 d.P.[.g [ {.F.Q.cXR.E.V.m g '.r.g 8.mXsXlXsXjXw.=.1 G P * G ;.1XF k N N K U K j F H - - G 8X;.3 l ,.6X5X0X_.-. .[.lXkXY.| } } ",
"9 d.D.o.r kXcXkX` K.V.F.0 ( 9.) ~ R ' lX].[.'...3.s ! qX6XP I 8X>.J - T |.,X|. XT M $ - J 0XwX,.D D 1.1X5X5X).1. ...sXsXiXW -.6X",
"f.f.V.N.p F.` F.r F.S.` r Y.bX] 4.jX'.].sXL...~ R V <.9XXXXXj U U N N ,X5X2X2X,X|.K M B 4X6X,.).V Z 2.).4X).;.U d s ....^ %.qX0X",
"g.f.f.E.N.u T._ K.VXkXU.5.' 3.3.iXxXe...9.^ / f . :.qXqXoXoXS j U - Y 5X2X,X,X,XT T K M 1.1X1XJ s A *.*.;.;.I C + a A a ; *.rX@X",
"s.s.g.(.u.R.LXaX{ aXxXfX'.R q.xXr.#.4.4.X.) ^ 4   ! 8XXXoXK k P 8XS XXeX2X,X,X|.,XK j # C ! J ;   + ! %.O.O.z $ d J J J C ;.8X@X",
"s.s.g.a.8 R.SXT.b K.%X$X#.w %XVXr.4.aXhXlXiX'.0.x j %.S I K k oX7XO.XX2X2X2X|.|.Y S c x 3 2 & 1._.a : 3 , # $ $ J 2.).2.K I #X#X",
"a.g.a.g.c.J.T.` m F.` m _ n &XcXU.aXZXaXxXfX$X7XW O.@.I oXeXeXB x z W @X2X2XT T H V = x =.:.. AXIXa + ! w.O.2 d 2.J Y J F k c c ",
"g.a.a.^.A.9 G.J.G.J.q G.;X*XF.F.$.BXhXdXBXfX+X#.x O.I oX@XeXeX|.; +.<.! :.;.G S z ; l =.=.%.1 -.2.& } _.6Xw.G ; Z -.J J H . I P ",
"y.a.a.b.b.t.A.^.n.x.y.~.;X=Xm.0 &XfXhXMXaXq.@.x % c c XXeX2X,XoXG Z 9X:.z 3 x 3 =   x w.8.! 3 & & a wXwX,.%.%.2 ; ! -.G * U 3X3X",
"t./.(.y.t.y.b.^.v.t.q =X=XH.n.q *X&X&XaX$Xq.Q z z O.c ;.uX2X2X Xl Z gX8.2 +.w.:.0.&.W A Z : 3 | a *.1.-.-.D a :   + a d ; 6X0X5X",
"p.A.b.y.v.^.z.t.y.q y.;XG.l.h.0 m *XkX$X7.E % A wX7X:.L  X XK k # x +.W =.hXMXMXMXpX3.~ % W 7XhX~ ! =.} Z a 3   } s o . 1X0X4X.X",
"u 8 u.u.G.v.t.y.-X;X=XH.h.z.v.n.c.F.F._ b R s qXqX).6XG j S I L Z W : ^ hXgXfXMXpXpX+X$X^ pXZXgX5.% : x 2 . % w.gXgX| A 1.1.<X1X",
"B.8 k.b.p.t.x.~.JXJX>XH.j.z.^.^.B.0 $.kXxXfX_._.wX1.6XG F .X8X6X:.=.2 r.ZXBXBXaXpXxX%X7.e.r.+XpX^ 4 =.4 o W jXMXvXvX`.-.G ).Y J ",
"d.9 p.k.z.x.^.>XJX>X;X-Xc.z.n.M.J.0 cXKXZXfX8.J ).1.%.C ;.0X8X%.&.&.x r.hXBXBXaXaXK.fXpX3.#.3.3.R 0.gX0.7XZXAXZXjXjXpX8.3 H U U ",
"i 7 u.t.y.h.M.>X>X>X;XM.h.h.n.n.l.b VXfXxXgXO.a U %.; C 0X1X0X1.*.^ Z 7XMXhX$XfXaX$X$XiX5...: R 5 | r.`.hXhXZXsXpXsX8.`.| . * d ",
"9 q u.9 n.=X-X-X>X>XM.x.h.q m.m O < $.@X&Xq.D ; D j . :.0X4X0X).O.%.3 `.hXhXfX'.aXU.I.r.4.R s | | A & 5.hXhXhXaXI.].L.9.0.2 V l ",
"a.k.y.9 *X>X;X-Xn.n.n.H.H.n.m m &X$.O.v @.x O.@X8X<.V ;.uX4X4X).%.! 3 7XpXjXiXaXU.L.U.6.~ Z ^ =.| | W s jXjXbXsXsXU.aX9.3.R W W ",
"a.t.y.A.DX;X=X=Xn.h.H.>X*X&Xm &X&XdX@.D k 0.rXCX9XOXO.c Y 2.,.U J & & 7XpXdXI.U.U.7.4.4.R : &._.-.8.} 3 w.gXfXU.aXL.K.7.Q : D 3 ",
"9 t.t.:XJXH.=X=XH.m n.;XH.$.n &XCXXX8XL D NXCXrX9X9X@.@ H K K H ; $ % &.r.pXL.e.e.6...| Z ! 8.)._.8.! Z ! gXI.'.U.L.] ] R X , % ",
"x.M.b.:X-X~.=Xn.n.m n n.#X#Xc #X@XY F - I NXrXrX9X<.c , S ; $ & C C 1 , &.4.6.e.7.) ~ R : ! *.7X_.| ! Z x +XU.I.L.) ) f R ^ % O.",
":X^.z.-X:X~.=XJ.m.m m &X&XNX#XI * I B F S 0XyXrX8XI , ! :.F $ C %.%.3 : 5.6.$.E [ E E < , _.-.6Xw.%.&.3 X x Q ' ] E w E 5.8.Z OX",
"^.x.y.M.:X^.v.c.n m &XAXNXNXtX#Xc S 3XuX1XF XX<XG = @ x ! Z , Z %.! = W hXfXK.E o $.ZX/ 3 w.6X-.*.! R : , 4 w ] ] ] 5 / r.! *.1.",
"n.h.q h.^.^.b.i n &XCXNXrX@X#XoXN ;.0X4X3X,.- - N V 3 z 2 & 3 : 3 2 % iXZXZXhXY.e E ' R ^ ! &.+.! R X x #.3.v xXxX9.E f =.2 *.*.",
"z.b.b.b.z.t m b #XrXyXtXtXXX>.%.j >.yX0X<XU K - O.W , x 3.0.jX9.7.w 4 xXAXxXfXaX7.v < fXaX6.Q : X W 0.+XpX+.Q 6.hX6.5.E 7X+XR +.",
"^.v.^.z.j.0 _ &XoXeXyX@XoX:.L D = XX6X1.).,.- $ c c D MXAXiXpXsX7.4.E U.xXVXfXU.q.#.E fXfXxXe.w ~ $X$X$X$X#.R Q r.3.E ~ hXfX+.v ",
"^.v.v.z.j.0 n #XD B oXoX;.O.C ; $ O.7X:.G C $ G XXXX@.%XhXhXjX'.I.#.< #.fXhXdXdX0.v Q MXxXfX4.R $XMXfX+Xr.6.E w E / > ~ fXfXq.R ",
"G.c.j.j.j.t O # c k I I c j & 2 W = x < > : D wXNX@XW +XfXxXpXe.3.^ < Z 0.dXdX@.D z x +X7Xr.Q 3.fXdX$Xq.q.6.^ 4 R 4.R E Q #.] x ",
"G.c.x.k.t n n W ;.oXoXI * ; +.8.! : g ` F.] =.CXOX-.Z b fX$X5.=.W v v +.O.O.XXx O.P @.O.W O.W +XfX$XI.e.q.4.Q > ] $X7.R < +.' Q ",
"G.c.A.m.q 0 _ @XtXtXoXY V 3 ^ ~ 6  .T.Q.W.K.R w.9X<.x , $.#.E s x x :.NX@.z XX#X8X@XOXO.D x D +XaX+Xr.U.e.#.E 4 Q I.q.v R &X$X$X",
"n.x.m.l.t O +XNXrXeXoXoX! % X r X.zX{.Q.E.F.e / w.D D 0.&X#.R E , W +X9XO.x @X8X@X@XXX@XXXD W gX$XU.q.e.7.' R < E r.6.v 5.xXfX&X",
"v.v.h.u.0 0 &XNXrXeXeX;.A w e W.zX{./.J.E.N.{ < , Z +XBXpX$Xq.4.x Q 0.@XO.c XXrX9XrX@X:.@.W W +Xr.I.6.#.' Q w 5 R 5.~ v U.hXfXr.",
"x.z.t.q 7 n fXNXtXeX.XY G O Y.{.Q.Q.E.Z.Z.d.( r < +XZXgXpXpXU.7.Q v < x , , @X9X8X@X8X:.0.! x r.e...3.' ^ R 4 < w ^ 4 v I.+Xr.#.",
"M.v.h.u.t O &X9X8XeX.XU z R *X*X!.E.D.Z.f.d.r r 4.fXCXgXgXdXU.7.#.w R q.O.z O.@X9X@X@X0.+.x < 0.3.~ ^ W v 4 5 X : : < < E E v _ ",
"M.M.v.A.l.6 Q 9X8XXXK j . E T.*X!.Z.D.d.i.h 7 e fXhXMXMXfXpXK.7.4.e R r.r.O.l D <.:.%.O.Z : < ^ ~ W R v 3 : 3 5 , 4 r.7Xq.' : E ",
"M.M.a.b.t 0 O n O.G S P z W b N.V.d.f.u 8 e 7 [ VXBXMXfXjXI.e.9.] E < q.r.@.= l c c j 3 x Z 4 : 4 4 2 % % , Z Z x &.hXZXpXe.E I.",
"t.(.A.p.u 7 i ` < v #X8X<.+.v 0 y d.i i p 7 p ].xXBXxXfX$XI.9.9.) E : ..=.C j %.G C * j ! 0.R . = D A , % z %.W 3 7XMXhXr.#.' fX",
"j.k.q 9 8 B.Z.F.b @XNX6XXX&.W 6 h f.d.u p O { sXxXBXfX&X%XiX6.| / R X s a 1 P >.oXP j ; V Z : % =.w.*.! l = Z z = 7XgXgXr./ ' '.",
"J.Z.B.p.9 E.A.J.m _ $XXX,.O.1 < P.E.V.B.y O ) iXfXhX%X&X%XU.../ f s : 5 = S ;.,.Y T M $ @ $ . % <.1.O.O.l @ ; Z z ! ^ &./ w U.sX",
"J.B.B.i.i a.J.i.q O Q =.&.Z X ^ W.D.V.d.u 7 ) 6.aXfX%X&XT.7.^ ! R 5 A ! ; C U .XU K N $ C G ; : Z &.G S k C .X>.O.; & 4 5 < e.I.",
"D.C.N.l.9 i i i u u y e r 6 O P.{.D.V.i.8 u K.K.) #.$Xq.#.+.Q v 3 1 &.! V * G ;.P M - P >.;.U D : 5 A $ N |.4X.X>.H & R ..] R E ",
"B.k.i i i i t R.R.J.V.( y r O W.{.C.d.h p d.R.K.r ^ 0.@.O.D , @ a } %.H D = * C j M K 1X>.%.>.A s X . *  X5X2X5X;.U a R 4.~ R #.",
"c.k.q 9 9 8 A./.J.E.Z.l.N.h 7 [ W.C.y p 7 y [ _ v w.+X@X<.O.D % H } ,.Z ; j F F * U >..X>.Y U %.Z . . * .X5X<X<XY ,.C & W v R +X",
"b.b.z.p.y.u.J.E.J.Z.B.l.N.y r ( 7.[ V.T.S.C.e O ^ dXrXqX8X;.O.j & ; C & & G 1.L - U ,.,.,.%.G J & a & * G XX<X>.U U - $ j z x =.",
"G.~.G.A.J.l.p.E.E.Z.B.V.y 0 X.aXaX%X%XY.T.K.] v W 9X8X8X1X;.P ; . d & $ H 1.,.U M - U ).U U %.- & ! %.C C U ,.;.K k * c G D c ; ",
"-X-XH.c.k.u.i B.V.V.N.h r e kXfXfXaX%X$XU.7.#.Q z :.XX1XXX;.P & $ C C & d U 2.F - - H J C H M * G 2.-.*.Z a H G j k N Y Y Y I z ",
"~.n.^.c.u.u.9 9 i.N.u r { Y.xX'.dX$X$X$Xr.7.~ W = D ;.:.;.L V * a C H a . d F M M G M * M C $ ; >..X2.-.a s A C - N  X X XT P U ",
"-XH.n.j.l.l.7 N.C.y h e Y.lX$XgXpX+X$Xr.r.4.^ W x x O.G V D 3 + 2 ! C & ; H M ; %.%.F & C A d C ,.).} A s 8.`.&.V  X|. X XT B N ",
"H.n.m.m.l.q 8 Z.E.V.( C.kXaX%XfX$X0.r.7X4.' ^ R < +.0.+., R r.^ : Z 3 ; } %.G ; G :.C % &.*.! C S K H + A '.w.! L ;.Y  X XK B N ",
"H.n.m.h.l.q 8 B.N.V.N.y Y.aXY.U.+Xq.0.3.~ ~ Q f # +.q.#.w Q K.E Z r.:.D -.;.G & @ V W 2 &.5.&.& ; F Z & / '.r.Z z Y Y  XY I N N ",
"n.n.m.t 0 7 7 y C.( r 6 Y.iXI.pXr.0.3.'  ./ R w w Q $.#.w r e w ' $XOXW *.J C * :.dXdX#.x W W % U *.} a 1 s R % = L O.P P F S j ",
"m m n 0 i r r e w r r Q iXiXr.+Xr.6.3.' ] g w > > [ $.r e K.K.) 6.+.3 l S M $ $ 9XAX7X0.4 ~ Z s *.*.! Z : % Z 2 % D G D D z 1 = ",
"n $.$._ 7.K.] v O E U.I.4.r.7Xr.q.#.] Q R f r 5 > w w 6 E ].Y.K.fX0.2 %.%.%.M V 9XCXq.W ^ jXw.| x Z x 3 # = V 3 s ! Z s V 4 s 2 ",
"#X*XfX&Xr.6.4.E : 4.xXfXR ^ 8.3.#._ v w w g / E w O E $.[ e e aX&X+.W OX;.,.H C :.+X+.X 5.hX7X! : Q +.x # j z @ W | f r f R ^ ^ ",
"$XaX&X&XI.q.5.E > Q fX$X^ n ~ ] _ v e Q ' ..6...R v %XaX4.E w iX0.x =.8X1.U P M . , x o R 0.=.R w 6.r.D c O.D 2 Z R f f E / ' 4.",
"Y.%Xr.$X+X#.#.Q > E %X$.#.w U.xX7.b E '.aX'.9.7.Q w q.q.^ g > ^ W @ O.XX<XU U M z D W 4 # x Z =.4._ v = S :.P z Z / ) o.X.[ ..7."
};
