/* XPM */
static char *c9a0c98dea5440bcd987e496a46f1683tWdWzW1JowCyEtpi[] = {
/* columns rows colors chars-per-pixel */
"64 64 240 2 ",
"   c None",
".  c #000001",
"X  c #00000C",
"o  c #000B05",
"O  c #1A0102",
"+  c #051605",
"@  c #1A1A05",
"#  c #000013",
"$  c #00001B",
"%  c #050B18",
"&  c #021719",
"*  c #151A14",
"=  c #291604",
"-  c #371802",
";  c #241D18",
":  c #2D0007",
">  c #192517",
",  c #2B2904",
"<  c #28281B",
"1  c #393819",
"2  c #312D0D",
"3  c #000024",
"4  c #00012C",
"5  c #030C24",
"6  c #071627",
"7  c #181929",
"8  c #000335",
"9  c #081839",
"0  c #180F2E",
"q  c #1C2623",
"w  c #003134",
"e  c #312B28",
"r  c #373526",
"t  c #292A32",
"y  c #383637",
"u  c #2D2D27",
"i  c #5F0000",
"p  c #4A0000",
"a  c #790004",
"s  c #620010",
"d  c #532A09",
"f  c #753A1C",
"g  c #6A3410",
"h  c #483C26",
"j  c #3D4224",
"k  c #3F4012",
"l  c #49451D",
"z  c #555008",
"x  c #6C4D12",
"c  c #726400",
"v  c #6C6D09",
"b  c #4A4A22",
"n  c #495427",
"m  c #5B5926",
"M  c #4D482E",
"N  c #675A27",
"B  c #6B4D2A",
"V  c #686429",
"C  c #72682B",
"Z  c #7C732D",
"A  c #767629",
"S  c #696935",
"D  c #757A38",
"F  c #746B35",
"G  c #5D6131",
"H  c #0E1445",
"J  c #3C3C56",
"K  c #31324A",
"L  c #2A1F4D",
"P  c #51145C",
"I  c #682C58",
"U  c #3D414D",
"Y  c #4C4A47",
"T  c #555455",
"R  c #544A4B",
"E  c #6F465B",
"W  c #66635D",
"Q  c #505367",
"!  c #79496D",
"~  c #5B6673",
"^  c #69656A",
"/  c #747578",
"(  c #686C74",
")  c #8C0000",
"_  c #960F0F",
"`  c #942C19",
"'  c #BB3109",
"]  c #AB1904",
"[  c #C13D16",
"{  c #CD3504",
"}  c #8B480D",
"|  c #A3481E",
" . c #B94817",
".. c #8C7106",
"X. c #BD7E00",
"o. c #A26A00",
"O. c #904C28",
"+. c #B4532A",
"@. c #867A2A",
"#. c #877B32",
"$. c #917B2F",
"%. c #B46736",
"&. c #D84918",
"*. c #D9561A",
"=. c #C64715",
"-. c #ED4D0D",
";. c #E44807",
":. c #E34E1B",
">. c #E74D15",
",. c #EC531A",
"<. c #E7561C",
"1. c #F55716",
"2. c #F04E12",
"3. c #C45924",
"4. c #D35627",
"5. c #E85B24",
"6. c #E9632B",
"7. c #FB6018",
"8. c #8A3379",
"9. c #B5674B",
"0. c #864E6B",
"q. c #8B775F",
"w. c #CB754A",
"e. c #758338",
"r. c #778143",
"t. c #AD8804",
"y. c #B4A115",
"u. c #888427",
"i. c #968B2E",
"p. c #888936",
"a. c #958A38",
"s. c #9A9539",
"d. c #949426",
"f. c #A2923B",
"g. c #A89A38",
"h. c #AC9E33",
"j. c #B4A23C",
"k. c #B7A739",
"l. c #ADAB36",
"z. c #998300",
"x. c #C78500",
"c. c #D89202",
"v. c #D58F0A",
"b. c #F89D00",
"n. c #FBA606",
"m. c #FBB017",
"M. c #D8A625",
"N. c #C1A93D",
"B. c #C5B13E",
"V. c #D2B532",
"C. c #E7B529",
"Z. c #F2B128",
"A. c #DAC43C",
"S. c #CEC43B",
"D. c #F6D534",
"F. c #FAD535",
"G. c #FCDA36",
"H. c #FCD639",
"J. c #FEDD3B",
"K. c #F6D838",
"L. c #E7CC3D",
"P. c #FF3C28",
"I. c #FEEB3D",
"U. c #FCE235",
"Y. c #85854B",
"T. c #968E48",
"R. c #9CA24A",
"E. c #A8AB46",
"W. c #B7A844",
"Q. c #B6B446",
"!. c #B2B55C",
"~. c #A19B4F",
"^. c #C8AE47",
"/. c #CAB544",
"(. c #D3BC43",
"). c #D4BF4B",
"_. c #C3BB58",
"`. c #C8C549",
"'. c #DBC244",
"]. c #D7C849",
"[. c #D8D44E",
"{. c #CAC854",
"}. c #D8D054",
"|. c #EACD45",
" X c #E6C945",
".X c #E8D247",
"XX c #F4D445",
"oX c #FAD645",
"OX c #FEDD43",
"+X c #F4D54B",
"@X c #FCDC4A",
"#X c #F5DA49",
"$X c #E3DC53",
"%X c #E9DB52",
"&X c #F3C749",
"*X c #FFE342",
"=X c #FFEB43",
"-X c #FEE34A",
";X c #FFEC4B",
":X c #F4E74B",
">X c #FFF44C",
",X c #FFF347",
"<X c #EAE556",
"1X c #F3EB54",
"2X c #F3ED5A",
"3X c #FBED54",
"4X c #FEF453",
"5X c #FFFA54",
"6X c #FEF55B",
"7X c #FDF85B",
"8X c #EFE34C",
"9X c #F9F362",
"0X c #737887",
"qX c #985A89",
"wX c #86898B",
"eX c #979B9B",
"rX c #888C92",
"tX c #929AA4",
"yX c #9EA6A9",
"uX c #A7A9A7",
"iX c #BCBEB9",
"pX c #B4B6B2",
"aX c #AAAFB2",
"sX c #BEC1BC",
"dX c #BEC1B7",
"fX c #C1C4BE",
"gX c #C5C8BF",
"hX c #B8BFC2",
"jX c #B5C0C5",
"kX c #C4C5C1",
"lX c #C6C8C3",
"zX c #C7CBCA",
"xX c #CDD3D3",
"cX c #D4D9D9",
"vX c #CAD0CB",
"bX c #FF3C28",
"nX c #DCE1E3",
"mX c #D1E0E2",
"MX c #E0E3E3",
"NX c #D7E0DD",
/* pixels */
"                                                      ^ T K K J K Y T                                                           ",
"                                            y 4 3 3 $ r l m N m b > $ 3 3 7 h                                                   ",
"                                        $ X # N s.B.'.|.H.&X&XH.XX|.V.k.#.1 X X <                                               ",
"                                    $ . b g. XoXOXJ.J.G.F.F.F.F.G.H.*XOXoX|./.@.X . <                                           ",
"                                e . b k.+XOXG.H.F.F.F.F.F.F.D.F.D.F.F.F.H.H.J.oX(.$.. . r                                       ",
"                              $ . f.&XOXF.D.F.F.F.F.F.F.F.F.D.D.D.F.D.D.F.D.F.F.J.OX(.V . <                                     ",
"                            X 1 (.OXF.F.F.F.G.F.F.F.F.D.D.D.D.D.D.D.D.D.D.D.F.F.D.F.J.oXf.. *                                   ",
"                          . N |.J.F.F.F.H.H.H.D.D.F.F.D.D.D.D.D.D.D.D.F.F.F.F.F.H.F.H.J.oX^.. *                                 ",
"                        . V &XJ.H.H.F.G.G.H.G.D.D.D.K.D.D.D.D.D.D.D.D.D.D.D.D.D.D.D.F.F.F.OX^.X <                               ",
"                      . b |.F.D.F.H.G.G.G.F.F.D.K.K.D.D.D.D.D.D.D.m.D.D.D.D.D.D.D.D.F.F.H.H.OXW.. e                             ",
"                    q *  XJ.F.H.H.H.J.G.G.F.F.G.D.D.D.D.D.D.D.D.D.D.D.D.D.D.K.D.D.F.F.F.D.H.H.*XT.. M                           ",
"                  Y . N.oXF.H.H.J.G.G.H.G.G.F.K.U.K.K.D.D.D.D.D.D.D.D.D.D.D.D.K.D.F.F.F.H.H.G.G.oXN #                           ",
"                  $ Z oXH.J.H.G.G.G.J.G.G.H.F.F.D.D.G.D.D.K.D.D.D.D.D.D.D.D.D.K.H.D.H.H.H.H.G.F.OX'.. e                         ",
"                y # '.J.H.H.G.J.J.J.J.G.J.J.G.H.G.D.G.K.G.K.D.G.D.D.F.F.F.D.D.D.H.H.G.G.G.G.G.G.H.OXa.X                         ",
"                # $.OXH.G.G.J.J.J.J.J.G.F.G.G.J.J.G.G.G.G.H.J.H.U.G.G.G.G.F.G.F.H.H.;X9X6X;XJ.H.J.OX X. y                       ",
"                X (.J.G.J.G.J.J.J.J.,X7X>XP.G.J.G.H.H.G.G.J.K.H.G.G.J.G.G.G.G.J.H.-X$XY.Y.{.;XJ.G.H.@XZ 3                       ",
"              3 m H.H.H.J.J.J.*X*X;X$X!.{.3X*XU.J.J.H.H.K.U.U.P.P.=XP.*XD.G.G.G.*X8Xr . . X [.*XG.F.*XN.X                       ",
"              X s.*XH.J.J.J.OX*X;X}.# . . T.3XU.U.U.U.=X>X7X7X7X2X2X9X9X7X5X,XP.*X(.. 1 1 . j.-XG.G.P. X# Y                     ",
"            Y X (.OXH.U.J.J.OXJ.;Xa.. 1 @ = .XP.U.=X5X1X{.R.e.S G m m G r.E.{.1X>X|.r . . . /.OXJ.G.J.#Xm 5                     ",
"            7 l +XJ.U.J.J.*X*XJ.-Xf.. , o l XXP.>X1XE.n x o.X.v.c.c.c.x.X.o.x m Q.4X(.N m g.oXH.J.G.G.-Xa.3                     ",
"            3 #.*XG.J.P.P.OXOX*XOX.XN X < /.J.;X$XM } c.n.b.b.b.n.n.n.n.n.m.n.c.g s.-XOX&XJ.H.J.H.G.G.*Xj.#                     ",
"            # g.P.P.J.P.P.*XP.*X*XOX+X(..XJ.;X$X< X.n.m.Z.Z.&X&X XC.C.C.M.M.M.M.M.O W.*XF.H.J.J.G.H.G.P.(.#                     ",
"            $ B.P.G.P.P.*X*XP.P.J.OXJ.J.J.OX3XF X.Z.V.^.W.~.T.Y.F N x f f f x f ` d N #XH.J.J.J.G.H.J.P..X@ /                   ",
"          Y X '.P.J.P.P.P.J.P.P.J.P.J.J.J.*X{.. ..B B ` _ ] ] { { &.&.&.:.,.:.:.<.=.V #XJ.J.H.G.G.G.G.J.+Xz T                   ",
"          y > |.*XP.P.P.P.P.*XP.P.J.P.J.J.-XB.. =.&.&.>.,.,.1.,.1.>.;.;.;.;.-.1.7.s j.OXJ.OXH.H.J.G.H.J.OX#.. ^                 ",
"          T , .XP.P.P.P.*XP.P.P.P.J.J.P.J.OX#XF _ <.1.1.1.-.-.-.-.2.2.1.1.1.1.&.s a.oXJ.J.J.J.G.H.G.J.J.*Xf.. . y               ",
"          t . ].P.P.P.P.P.P.*XP.P.P.J.P.J.*XP.+Xs.h ` [ &.<.<.<.,.5.:.&.=.` f C /.oXH.J.H.J.H.H.J.J.J.G.*XW.< a.. ;             ",
"        y o /.J.J.P.P.*X*XP.P.P.P.OXP.J.P.OXJ.J.@X|.k.a.Z C N N N N C #.a.k.'.oXJ.H.J.J.J.J.J.J.H.J.J.F.*X/.b #Xj.. <           ",
"      y . (.P.J.P.P.P.P.*XP.P.P.J.P.P.J.J.J.J.J.H.J.*XJ.oXoXXXXXXXoXoXOXOXOXJ.H.H.H.J.H.H.J.H.J.G.J.H.H.*X'.& +XOXj.. <         ",
"      . B.P.H.P.P.*XP.P.*XP.P.P.P.P.P.J.J.P.J.J.OXH.H.G.G.J.J.G.J.H.H.G.J.H.H.J.J.H.H.J.G.J.G.J.J.J.J.J.P..X& ].J.OXg.. 1       ",
"    X a.OXJ.J.OX*XP.P.P.P.P.P.P.*XP.P.J.J.J.P.J.J.P.J.J.J.G.J.G.H.G.G.F.F.J.J.J.H.J.J.G.J.J.H.G.J.J.G.J.P.XX> (.J.H.J.@..       ",
"  7 1 |.J.P.P.*XP.*X*XP.P.*X*XP.P.*XP.P.P.P.J.P.P.J.J.J.G.J.G.H.G.J.P.,X=XJ.J.J.J.J.J.H.J.J.J.J.H.J.H.J.P.-Xr B.P.H.J.L.h 6     ",
"  $ f.*XOXP.P.P.*X*XP.*XP.P.P.P.*XP.P.P.P.P.P.U.G.G.G.U.U.U.=X>X4X4X<X`.`.3XJ.J.H.J.J.J.J.H.J.J.H.H.J.J.J.@Xb k.*XJ.H.J.k.. R   ",
"Y X A.*XP.P.*X*XP.P.P.P.*X=XP.P.P.P.*XP.P.U.G.D.U.I.,X5X4X2X$X`.d.z . . X .X*XJ.J.J.J.J.J.G.G.J.J.J.OXJ.J.*Xm h.*XH.J.J.oXb 7   ",
"9 C @XU.P.P.*XP.P.P.*X*XP.*X:XP.*XP.U.J.P.I.;X5X5X2X[.k.u.z . 4 Q wXuXuX5 A.*XJ.J.J.J.J.J.J.J.H.H.J.J.J.J.@XV f.;XJ.J.G.*Xg.$   ",
"8 d.*XP.P.P.P.P.*X*XP.,X>X=XK.I.=X=X5X5X7X1X[.l.v , # H ^ rXuXiXgXgXgXiX4 A.*XJ.J.J.J.J.J.H.J.J.J.J.J.J.J.*XZ i.*XJ.J.J.P.(.#   ",
"8 h.P.U.*XP.*XP.P.P.>X1XE.:X5X5X7X<X`.h.v + 3 J / eXpXgXlXlXgXsXiXiXlXpX. .X*XJ.J.J.J.J.J.J.J.J.J.J.J.P.J.*X#.p.>XP.U.G.P..Xo Y ",
"4 k.*XP.P.P.P.*X:X,X}.r h `.S.d.z % 9 Q wXuXpXfXgXgXfXfXiXiXsXfXfXfXxXeX2 oXP.P.J.J.J.J.J.J.J.J.J.J.J.P.J.*Xf.. Q.>X*XJ.P.L.& y ",
"8 h.=XJ.P.P.*X*X=X$Xo . m j J 0XeXpXdXlXkXgXfXiXiXdXdXfXfXfXkXkXfXkXxX~ ..-XJ.J.J.J.J.J.J.J.J.J.J.J.OXJ.*X-Xg.. . Q.>X=XI.].$ Y ",
"6 m :X*XP.P.P.*X:XZ $ ^ jXrXiXlXgXgXsXdXiXiXfXfXfXfXfXfXkXkXkXkXgXxXkX. '.*XOXJ.J.J.OXJ.J.J.J.J.J.J.J.J.J.*Xg.o , . s.1X5Xs.X   ",
"( X S.I.J.*XP.;X'.0 0.qXxXeXsXsXsXsXsXkXkXkXkXfXkXkXkXkXkXkXkXkXlXcX( c @XOXJ.J.J.P.J.J.J.J.J.OXJ.J.J.P.J.=Xg.. W T . j F # q   ",
"  4 u.:XU.P.OX=XM.P 0.E mXeXsXkXdXkXkXkXkXkXkXkXkXkXkXkXlXlXfXlXnXuX. ).P.J.J.P.P.J.P.J.J.J.J.J.J.J.P.J.J.*Xs.3       . .       ",
"  y 3 (.,XK.P.;Xh.P I 0./ ~ xXkXiXlXkXkXkXlXlXkXzXkXkXkXkXkXxXnXpX. W.oXJ.P.P.J.P.J.J.J.J.J.P.J.P.J.J.P.J.=Xa.3                 ",
"  y E ; }.,XJ.;X$.qX0.8.$...uXbXkXhXkXkXkXkXkXzXzXxXxXcXbXbXcXrX. g.@XH.J.J.J.P.J.P.J.J.*XJ.J.J.P.J.P.J.P.-Xu.$                 ",
"  o 0.! 1 $X5X$X* P U L ^.OXG aXnXbXbXbXbXbXnXbXmXxXzXjXaX0X3 = /.@XJ.J.J.J.J.J.P.J.J.P.J.J.J.*XJ.J.P.J.P.-XZ 3                 ",
"  * Q E . , u.r s.V.V.L.K.J. Xz ~ tXyXyXtXrX0XQ K 4 . . = c j.+XP.G.J.J.J.J.P.P.J.P.P.J.P.J.P.J.J.P.J.P.P.:Xv 8                 ",
"    . > / ^ $ o ].P.OXJ.J.H.J.+Xy...c c c ..z.y.V.V. X|.#XOXJ.J.H.J.J.J.OXJ.P.J.J.J.J.J.J.*XJ.P.J.P.P.J.P.#Xl t                 ",
"              8 g.*XH.J.*XP.J.J.-X:X-X-X-X-X-X-X*XJ.J.J.G.F.H.J.J.P.J.J.P.J.J.J.J.*XP.P.P.J.P.J.P.J.P.J.*X.X. y                 ",
"              9 u.-XJ.P.P.P.P.K.H.J.G.H.J.G.G.H.J.H.J.H.J.J.J.OXJ.*XJ.P.P.J.P.J.J.P.P.J.P.J.P.J.J.J.J.J.=X]..                   ",
"              U V -X*XP.P.P.P.*XP.P.J.J.J.J.J.J.P.J.P.U.J.P.J.J.J.J.J.J.J.P.J.J.P.J.P.P.J.P.J.P.P.P.P.P.;Xf..                   ",
"                # .X*XP.P.P.*XP.K.*XP.J.P.P.J.J.P.J.J.J.P.J.P.J.P.J.J.P.P.J.P.*XP.J.H.P.P.P.P.P.P.P.J.=X%X2 7                   ",
"                # g.,XK.P.P.P.P.P.P.P.P.P.P.P.P.P.OXJ.J.J.P.J.J.J.P.P.J.*XJ.J.P.*XP.P.P.P.P.P.P.*XJ.J.6Xs.3                     ",
"                t X [.,XU.*X*X*XP.P.P.P.P.P.P.P.P.P.P.J.P.J.J.*XP.J.P.J.P.P.J.P.P.P.P.P.P.P.P.*XJ.U.4X_.. /                     ",
"                  $ N 1X=XU.P.*XP.*XP.J.P.P.P.P.J.P.P.*XP.P.*XJ.J.*XP.P.P.P.P.P.J.P.P.P.*X*XP.K.P.4X`.. . T                     ",
"                    # C 1XI.K.U.*X*XP.P.P.P.*XP.P.P.P.P.P.P.J.P.J.P.*XP.K.*XP.J.P.J.J.P.*XK.K.;X7XE.. O.g . e                   ",
"                      . A $X4XI.U.K.P.*XJ.*XK.*XP.P.P.P.*XJ.P.P.P.P.P.J.P.P.P.P.P.P.*XJ.U.=X5X<XD O  .5.+.; %                   ",
"                      > . > E.8X>XI.J.J.U.OX*X*XP.P.P.P.P.P.J.P.P.J.P.P.P.*X*X*XP.J.U.=X>X2XE.% a *.*.f - O T                   ",
"                    7 = 3.4.i j Q.:X>X,XP.U.U.U.J.P.P.*XP.*XP.*X*XP.P.P.K.U.K.U.I.>X4X<XE.j p  .*.;.+.o R                       ",
"                    & d +.3.*. .s b s.].1X>X>X,X=XP.P.U.P.K.U.P.P.P.P.*XI.,X5X7X1X`.e.# i  .6.5.:.5.| X                         ",
"                    y * o +  .<.*. .a : n e.Q.$X8X1X4X>X5X>X4X>X>X4X4X1X<X{.Q.A < . ) =.*.+.9.9.w.+.= t                         ",
"                        q.& | <.<.5.6.6.' ) i : u m A u.s.s.s.s.p.D G b $ $ 4 J 6 d 3.6.| X 6 # . X t                           ",
"                          K - +.w.%.O.x +.5.6.O.. t L # . . o . X X 8             . < B . j                                     ",
"                            > # o # w w . O.O.O u                                   & #                                         ",
"                                        * X X q                                                                                 "
};
