/* XPM */
static char *aym8a_gfx00[] = {
/* columns rows colors chars-per-pixel */
"128 128 16 1 ",
"  c None",
". c #111215",
"X c #151015",
"o c #151D1A",
"O c #1D3230",
"+ c #40231E",
"@ c #314E3F",
"# c #2B454F",
"$ c #4F5D42",
"% c #B6834C",
"& c #E8B26F",
"* c #3A708E",
"= c #699FAD",
"- c #9A9F87",
"; c #F5D893",
": c #EDE6CB",
/* pixels */
"                                                                                                                                ",
"                                                                                                                                ",
"                                                                                                                                ",
"                                                                                                                                ",
"                                                                                                                                ",
"                                                           #  #                                                                 ",
"                                                       #      *                                                                 ",
"                                                       *      *#  * *                                                           ",
"                                                       *     #*=#   #                                                           ",
"                                                          *  **=*   *                                                           ",
"                                                             **=* * *                                                           ",
"                                                             **=***                                                             ",
"                                                      #      **=***                                                             ",
"                                                      *     #*==*=*                                                             ",
"                                                      *   # **==*=*#  *                                                         ",
"                                                          #**===#=**                                                            ",
"                                                          *=*=*===**                                                            ",
"                                                      #   *=*=*===**   #                                                        ",
"                                                          *=*=*=*=#**  #                                                        ",
"                                                         **=======#**  *                                                        ",
"                                                      #  ***==*=*==**  *                                                        ",
"                                                      *  **=*====*=**#                                                          ",
"                                                         ***====*=***#                                                          ",
"                                                         **=====**=***#  #                                                      ",
"                                                     *   *=*===-*=***** *#                                                      ",
"                                                        ****===-=*=*******                                                      ",
"                                                        **=*===-=****=****                                                      ",
"                                                     * ****===--=*=**=****                                                      ",
"                                                     * ***==-==-==***=****                                                      ",
"                                                     * **=====---*=**=****                                                      ",
"                                                     * **=*=-==--***==****                                                      ",
"                                                     *****==-=-=-*=*===***                                                      ",
"                                                     **=*=*=-===-=**=*=****                                                     ",
"                                                     **=***=-=-=-==*==*****                                                     ",
"                                                     **=*=*==-=--====*=****                                                     ",
"                                                     **=**====-=--===******                                                     ",
"                                                     **=*=*-=---=-===*=****                                                     ",
"                                                    ******==-=---=====*****                                                     ",
"                                                    ***=*==--=--=-===*=*****                                                    ",
"                                                  * *=**====-=--=====**=****                                                    ",
"                                                  * *=*=*==--==-=-===*=*=***                                                    ",
"                                                  ***=**==-=-==--=====******                                                    ",
"                                                  ***======--=---=-====*=***                                                    ",
"                                                  **==*=-=----=-=-==-=*=****                                                    ",
"                                                  **=======--=---===-==*=*** #                                                  ",
"                                                  ***===-=-=--=---=-===******#                                                  ",
"                                                # **=====--=-=-=-=-=-==*=****#                                                  ",
"                                                #**=*=-=-==-==-=--=-=-==*****#                                                  ",
"                                                #***===-==-------=--===*=****#                                                  ",
"                                                #**===--=--::::::---=-====***#                                                  ",
"                                                #***=-=--::;;::;;::--=-==****#                                                  ",
"                                                #*====--:;:;;:::;:;:---===***#                                                  ",
"                                              # #**==--;;:;::;:::;:;;---===**#                                                  ",
"                                              #***==--;;;:::::::;::;;;--===**#                                                  ",
"                                              #**===--;;:::;:;;:;;::;;-==*=**#                                                  ",
"                                              #**===-;;:;::::::::::;::;-===**#                                                  ",
"                                              #**=*=-&:;::::::::::::;:&-=*=**#                                                  ",
"                                              #**=*=-;;:;::::::::::;::;-===**#                                                  ",
"                                              #**===-&;;:;;;:;;:;;;:;;&-===**#                                                  ",
"                                              #**=*=-&;:&..&;::;&..&:;&-==***#                                                  ",
"                                              #**===-&&;&....;;....&;&&-==***#                                                  ",
"                                              #**===-%&&..+..&&..+..&&%-==***#                                                  ",
"                                              #**===$-&%.....&&.....%&-$===**#                                                  ",
"                                              #**=*=$-&&%..%&;;&%..%&&-$=*=**#                                                  ",
"                                              #**=*=@$-&&%%&;::;&%%&&-$@=*=**#                                                  ",
"                                              #**=#*#@$-&&&;.::.;&&&-$@#*#=**#                                                  ",
"                                               #**=#*#@$-&:;::::;:&-$@#*#=**#                                                   ",
"                                               .#**=##@$-&;;:;;:;:&-$@##=**#.                                                   ",
"                                                .#*#*##@-;.:;..;:.;-$##*#*#.                                                    ",
"                                                 #**#*#@$X:..++..:X-$#*#**#                                                     ",
"                                                 .#*=##@@X::++++::X$@##=*#.                                                     ",
"                                                  #**=##@o:oooooo:o@##=**#                                                      ",
"                                                  .#**###OoO$@$$OoO###**#.                                                      ",
"                                                   .#*#*##OO@OO@$O##=#*#.                                                       ",
"                                                    .#*#*##OOOOOO##*#*#.                                                        ",
"                                                     .###=*=*#*=*#=###.                                                         ",
"                                                      ...##########...                                                          ",
"                                                         ..........                                                             ",
"                                                                                                                                ",
"                                                                                                                                ",
"                                                                                                                                ",
"                                                                                                                                ",
"                                                                                                                                ",
"                                                                                                                                ",
"                                                                                                                                ",
"                                                                                                                                ",
"                                                                                                                                ",
"                                                                                                                                ",
"                                                                                                                                ",
"                                                                                                                                ",
"                                                                                                                                ",
"                                                                                                                                ",
"                                                                                                                                ",
"                                                                                                                                ",
"                                                                                                                                ",
"                                                                                                                                ",
"                                                                                                                                ",
"                                                                                                                                ",
"                                                                                                                                ",
"                                                                                                                                ",
"                                                                                                                                ",
"                                                                                                                                ",
"                                                                                                                                ",
"                                                                                                                                ",
"                                                                                                                                ",
"                                                                                                                                ",
"                                                                                                                                ",
"                                                                                                                                ",
"                                                                                                                                ",
"                                                                                                                                ",
"                                                                                                                                ",
"                                                                                                                                ",
"                                                                                                                                ",
"                                                                                                                                ",
"                                                                                                                                ",
"                                                                                                                                ",
"                                                                                                                                ",
"                                                                                                                                ",
"                                                                                                                                ",
"                                                                                                                                ",
"                                                                                                                                ",
"                                                                                                                                ",
"                                                                                                                                ",
"                                                                                                                                ",
"                                                                                                                                ",
"                                                                                                                                ",
"                                                                                                                                ",
"                                                                                                                                "
};
