/* XPM */
static char *e9c58f03043f4c04a5842d79df7afe4dKS7PboxN7X7wOSs9[] = {
/* columns rows colors chars-per-pixel */
"64 64 5 1 ",
"  c None",
". c black",
"X c #FF8700",
"o c #FFD600",
"O c #FDFAF6",
/* pixels */
"                                                                ",
"                                                                ",
"                                                                ",
"                                                                ",
"                                                                ",
"                                                                ",
"                        oo    oo    oo                          ",
"                        oo    oo    oo                          ",
"                      oooooo  oo  oooooo                        ",
"                      oooooo  oo  oooooo                        ",
"                        oooooooooooooo                          ",
"                        oooooooooooooo                          ",
"                      oooooooooooooooooo                        ",
"                      oooooooooooooooooo                        ",
"                        XXXXXXXXXXXXXX                          ",
"                        XXXXXXXXXXXXXX                          ",
"                        XX..XXXXXX..XX                          ",
"                        XX..XXXXXX..XX                          ",
"                        XXXXXXXXXXXXXX                          ",
"                        XXXXXXXXXXXXXX                          ",
"                        XXXXXX..XXXXXX                          ",
"                        XXXXXX..XXXXXX                          ",
"                        XXXXXXXXXXXXXX                          ",
"                        XXXXXXXXXXXXXX                          ",
"                            XXXXXX                              ",
"                            XXXXXX                              ",
"                            ......                              ",
"                            ......                              ",
"                XXXXXXXX    ......    XXXXXXXX                  ",
"                XXXXXXXX    ......    XXXXXXXX                  ",
"                XXXXXXXXXXXXXXXXXXXXXXXXXX  XX                  ",
"                XXXXXXXXXXXXXXXXXXXXXXXXXX  XX                  ",
"                XX  XXXXXXXXXXXXXXXXXXXXXX  XX                  ",
"                XX  XXXXXXXXXXXXXXXXXXXXXX  XX                  ",
"              XXXX      XXXXXXXXXXXXXX      XXXX                ",
"              XXXX      XXXXXXXXXXXXXX      XXXX                ",
"                XX      XXXXXXXXXXXXXX      XX                  ",
"                XX      XXXXXXXXXXXXXX      XX                  ",
"              XXXX      XXXXXXXXXXXXXX      XXXX                ",
"              XXXX      XXXXXXXXXXXXXX      XXXX                ",
"                        XXXXXXXXXXXXXX                          ",
"                        XXXXXXXXXXXXXX                          ",
"                    OOOOOO    OO  OOOOOO                        ",
"                    OOOOOO    OO  OOOOOO                        ",
"                  OOOO        OO  OO  OOOOOO                    ",
"                  OOOO        OO  OO  OOOOOO                    ",
"                  OOOOOOOO    OO  OO      OO                    ",
"                  OOOOOOOO    OO  OO      OO                    ",
"              OOOOOO  OOOOOO  OO  OOOO  OOOOOO                  ",
"              OOOOOO  OOOOOO  OO  OOOO  OOOOOO                  ",
"              OO      OO  OO  OO    OO  OO  OO                  ",
"              OO      OO  OO  OO    OO  OO  OO                  ",
"              OO      OO  OO  OO    OO  OO  OO                  ",
"              OO      OO  OO  OO    OO  OO  OO                  ",
"                                                                ",
"                                                                ",
"                                                                ",
"                                                                ",
"                                                                ",
"                                                                ",
"                                                                ",
"                                                                ",
"                                                                ",
"                                                                "
};
