/* XPM */
static char *_cafe8d4b35a45439ebfbaa328bd1e8e3zXh7HDxFACxobrv[] = {
/* columns rows colors chars-per-pixel */
"64 64 225 2 ",
"   c #1C0C0E",
".  c #230D06",
"X  c #2F1603",
"o  c #2D140E",
"O  c #371807",
"+  c #34150C",
"@  c #3A160B",
"#  c #3B190E",
"$  c #2D1611",
"%  c #371812",
"&  c #3C1A12",
"*  c #471A05",
"=  c #441B0B",
"-  c #4B1D0D",
";  c #541F0C",
":  c #441D14",
">  c #4B1E12",
",  c #501F12",
"<  c #4B220D",
"1  c #4A270D",
"2  c #502608",
"3  c #54220D",
"4  c #5A230D",
"5  c #5B2A0F",
"6  c #452114",
"7  c #4B2414",
"8  c #4E2B16",
"9  c #44211C",
"0  c #4B261D",
"q  c #4D281D",
"w  c #542513",
"e  c #5A2612",
"r  c #552A15",
"t  c #5C2B14",
"y  c #53251B",
"u  c #5B261C",
"i  c #53291C",
"p  c #5B2B1C",
"a  c #5C3016",
"s  c #56301C",
"d  c #5B301D",
"f  c #62250D",
"g  c #6B260E",
"h  c #65290E",
"j  c #6B2C0E",
"k  c #702D0E",
"l  c #72300D",
"z  c #652614",
"x  c #642C14",
"c  c #6B2D14",
"v  c #62271A",
"b  c #632C1C",
"n  c #692D1C",
"m  c #722E12",
"M  c #732E1C",
"N  c #7B2F1A",
"B  c #643115",
"V  c #6B3214",
"C  c #64311B",
"Z  c #6C331B",
"A  c #6B391C",
"S  c #733214",
"D  c #7B3414",
"F  c #733814",
"G  c #7C3915",
"H  c #72341B",
"J  c #7B341C",
"K  c #743B1C",
"L  c #7B3C1B",
"P  c #462621",
"I  c #4A2522",
"U  c #4E2922",
"Y  c #532620",
"T  c #5A2625",
"R  c #562B22",
"E  c #5B2C22",
"W  c #662B22",
"Q  c #642D22",
"!  c #692E20",
"~  c #643124",
"^  c #6B3423",
"/  c #6E3920",
"(  c #733421",
")  c #7A3520",
"_  c #733A22",
"`  c #7B3B22",
"'  c #7C401D",
"]  c #7D4121",
"[  c #843B15",
"{  c #8A3E15",
"}  c #82361A",
"|  c #843B1D",
" . c #8A3F1B",
".. c #813A21",
"X. c #8C4317",
"o. c #83431B",
"O. c #944116",
"+. c #9C4314",
"@. c #9C4419",
"#. c #A8470F",
"$. c #AD490D",
"%. c #B24C0E",
"&. c #B94F0F",
"*. c #AF500F",
"=. c #B4520F",
"-. c #BD510E",
";. c #A54917",
":. c #AE4B13",
">. c #A44A19",
",. c #A64D19",
"<. c #B34D14",
"1. c #BB4E13",
"2. c #B74E1A",
"3. c #AE5215",
"4. c #A5511F",
"5. c #AB531E",
"6. c #B45314",
"7. c #BB5314",
"8. c #BD5915",
"9. c #B4531C",
"0. c #BB541C",
"q. c #B6591C",
"w. c #BD5B1D",
"e. c #BD691C",
"r. c #864521",
"t. c #AF5B24",
"y. c #B45522",
"u. c #B45F25",
"i. c #BA5922",
"p. c #B76125",
"a. c #BD6222",
"s. c #BE6924",
"d. c #BD6C2E",
"f. c #BA6D32",
"g. c #BD7035",
"h. c #CE4F0C",
"j. c #C1520E",
"k. c #CE530E",
"l. c #D4540D",
"z. c #D3590F",
"x. c #D85B0F",
"c. c #C35413",
"v. c #CF5512",
"b. c #C35D15",
"n. c #CC5C15",
"m. c #C2541A",
"M. c #C35C1C",
"N. c #CA5D1C",
"B. c #D35512",
"V. c #D85611",
"C. c #D25B14",
"Z. c #DA5C14",
"A. c #D25E19",
"S. c #D85F19",
"D. c #C5611D",
"F. c #CB631B",
"G. c #C36C1C",
"H. c #CB6B1E",
"J. c #D46317",
"K. c #DA6517",
"L. c #DC6E12",
"P. c #D4631A",
"I. c #D9641B",
"U. c #D5691D",
"Y. c #DD6C1D",
"T. c #DF7013",
"R. c #D7701F",
"E. c #DB711E",
"W. c #E1671B",
"Q. c #E3721E",
"!. c #EA761E",
"~. c #C15E20",
"^. c #C36321",
"/. c #C36C24",
"(. c #CA6E22",
"). c #C56728",
"_. c #CA6E2B",
"`. c #D46B20",
"'. c #D96D20",
"]. c #C47126",
"[. c #CD7225",
"{. c #CD722C",
"}. c #CF792E",
"|. c #D47425",
" X c #DB7523",
".X c #D77927",
"XX c #DB7A25",
"oX c #D3752B",
"OX c #D47B2E",
"+X c #D97A2C",
"@X c #C26F30",
"#X c #C37233",
"$X c #C87B3B",
"%X c #CD7D3B",
"&X c #D27C35",
"*X c #DA7E36",
"=X c #D37C3A",
"-X c #E37B25",
";X c #EA7821",
":X c #E57E28",
">X c #E97F28",
",X c #CF7E40",
"<X c #DF8023",
"1X c #CD803D",
"2X c #D58535",
"3X c #DB8434",
"4X c #DD8A37",
"5X c #D4823B",
"6X c #D9833B",
"7X c #E08224",
"8X c #E3862C",
"9X c #EB8229",
"0X c #E6892D",
"qX c #EB8C2E",
"wX c #E28433",
"eX c #E28C39",
"rX c #EA8E3B",
"tX c #EE913C",
"yX c #F1933D",
"uX c #CC8341",
"iX c #D38342",
"pX c #DD8B43",
"aX c #E28F45",
"sX c #E69146",
"dX c #E99447",
/* pixels */
"i r i b :.2.<.<.b u v b W W W W 8 7 0 7 7 7 6 8 6 7 6 8 ~.).~.~.H n x p I I I I w r e e 9 9 9 0 @.>.>.>.s././.s.A x B B 7 > > > ",
"i r i t :.<.2.<.! v b E W W W W i 7 7 8 7 0 8 6 1 7 6 a ~.A.~.~.c z x x I I I I i e e i 9 7 6 y ;.;.>.>.s././.s.A t C x > 7 , > ",
"r p i t 2.2.2.2.n u b v W W W W 0 7 7 y 7 8 6 8 1 1 6 8 ~.~.~.~.V b z b I I I I r e e r 7 7 : y >.>.@.>.s./.).s.F B C C 0 > > 7 ",
"i i i a :.:.<.:.b p b b W W W W 8 7 0 7 7 7 7 7 7 7 6 a ~.^.~.~.V t x x Y I I I w w i w 9 0 9 y >.;.>.,.s.s.s.s.Z B B B > , > , ",
"p C E p b b b b b u b b p p d s - - - - = - = - r t w c I.W.W.K.H u Q Q > - > - 6 6 6 6 t i r C 0.~.~.m.2.,.,.,.C p C p p y i w ",
"E Q b Q i p i i b b b v s d s s > * - - * = * = e x t V I.W.W.W.M T v v > - - - 6 : : 6 i t r C ~.N.N.~.,.>.,.>.C E d p i i p r ",
"p E p p y y y y e u u u a s a s - - - - - * = = t e w c I.W.W.I.n Q W v - - - - 6 6 : 6 r r 7 x m.~.~.~.:.,.4.,.Q i p i r i y q ",
"^ Z ^ Z Z ^ Z Z Z H _ A d a s p ; - - > * - * - B V x H I.W.W.I.! u b b - - ; - 6 6 6 7 B C B A ~.m.N.m.>.,.,.>.Z C Z C p p C b ",
"b.D.b.D.0X0X0X0X3X2X4X2XA B C B 4 ; 3 4 3 < 7 t d.@X@X@XQ.Q.;XY.J u b b h j V x t a r B a.a.a.a.O.{  .{ n n b Z q.8.8.6.e.b.-.b.",
"F.J.b.J.qXqXqXqX4X4X4X4XK B A V 4 4 ; 4 w w < t d.@X@X@XY.Q.Q.Y.Z T W b c j j j a a r B a.^.^.^.X.} { } Q p p n 8.8.8.8.b.b.b.b.",
"b.F.b.H.qXqXqXqXeX4X4X2XK t B B ; ; 2 ; = 6 = r d.@X@X@X;XQ.;XY.! u v W x j j h r a r B e.^.^.^.{ [ { [ b p p n 8.8.8.8.b.b.b.b.",
"F.b.n.G.0X0X0X0X4X2X4X2X' F F A f f f 5 B B a A @X@X@X@X'.Y.Y.'.J W n b k S V m B B a A a.).^.~. .[ { } b b p n 6.8.6.8.b.b.b.b.",
"x.Z.Z.S.X.' o.' ^ ~ ^ _ /.H.(.G.*.$.$.*.8XqXwX9X=X=X=X=XL H H G y.9.2.y.5.5.5.5.4.4.4.4.XX.XXX|.` K _ K E u R p n c n c #.#.+.#.",
"Z.Z.Z.Z.' F ' ' T T T ~ (.[.[.[.=.$.$.=.qXqXqXqX*X=X=X=XH b b F 9.y.y.0.5.9.y.5.4.5.4.t..XXXXX.X] _ K _ u R p Y u v u x O.+.+.O.",
"Z.S.Z.S.o.L ] ] ~ T T ^ G.[.[.G.%.$.$.%.qXqXrXqX*X,X=X=XK c n H y.y.y.y.9.y.5.5.5.5.5.5. XXX-X X] K _ K E y E y v v x z +.+.+.#.",
"S.Z.Z.Z.o.K K ` ~ T T ^ (.(.[.H.%.%.%.%.qXqX9X>X=X=X,X#XK b c S 5.2.2.y.y.,.5.5.4.4.4.5..X.X X.XL ^ K ^ p E y u v v 5 f O.+.O.O.",
"V.V.V.B.M v M n t e t z 6.1.2.2.h.v.v.B.{.|.|.oX' K K K p t u p b b b b p b b b p C p / g.#X#Xg.^ p C b y q q y Y u , T = : : = ",
"V.V.V.h.M z c z t 5 4 z <.<.<.<.B.B.B.A.{.|.|.(.Z x V b p p p p y y y y Y Y y Y E i i C g.$Xg.g.^ p C E q q q q u y T , + + + + ",
"V.V.V.B.m n n c 5 x 5 x :.<.2.<.v.v.B.B.|.|.|.[.K Z A V p p p r u R u u u u u p p p i ^ g.#Xg.g.~ y p E 0 q q q Y u y T % % % % ",
"B.B.B.B.m v c n e e w B :.2.:.2.v.B.~.B.[.(.[._.K x Z A t p t p u u u u Y u u r p p s d f.g.g.f.K Z ^ Z i y y i y u T , @ % @ % ",
"1.<.&.<.Q R E R s 8 8 8 t x e V n.S.P.n.J n H M s s s s d R s i Y Y i Y u u u u p p p i 8 1 1 s e.G.G.e.F c c c x b b v > > > > ",
"<.%.<.:.Q Y E E 8 8 8 8 3 w 7 x A.K.J.A.n v v v s s s s i s E p y R i Y u u u u R p p p % +   1 G.G.G.G.S c k c b b x v , , , > ",
"%.<.<.<.b R y E 8 8 8 8 w e w x A.J.J.A.M v n v s s s s E s i R i R Y Y u u u u p p E i & # + 1 e.G.G.G.S c c j t p v v > > > > ",
"<.<.<.:.E Y E R 8 8 8 i w e w x J.J.P.J.M v z n d s s s E i p p Y Y i Y u u u r E i p p # # o 1 G.H.G.G.G l S S Z Z n M u ; ; ; ",
"b n b b u y R y r t r r 3 3 : h XX<X<XXX| M ) ) H H S H u y y y q 0 8 q 9 9 9 9 I 9 I I : & % r J.K.I.J.M.M.M.M.(.(._.(.3.3.3.3.",
"r p p p u R y u r r r t 7 3 - a XX7X<X<X..M J M H H H H u y e y 0 0 0 0 : P 9 9 I 9 I > : : % w J.K.K.K.D.M.M.^.|.[.|.[.6.6.6.3.",
"i p p p y y u i r r 5 r w 1 < h <X<X<X<X| M J J H H F Z y y , 0 0 q 0 0 9 9 9 9 I 9 I : % % $ 3 J.K.K.K.M.~.M.M.(.[.[.(.6.3.3.3.",
"n Z n b p i y i r 5 t r 1 w = B <X<X<X<X| ) J J G F J J C C b C 8 8 8 q 9 9 9 9 9 I I 0 7 w 7 5 J.K.I.J.M.M.w.M.[.[.|.(.q.6.q.6.",
"m.m.m.0.x i i p B B B B B B t S <X8X9X>Xw.9.6.0.y.y.y.y.}.}.}.[.` / _ Z $ @ & @ 7 y 7 t %.&.&.&.b.c.v.c.D m k } =X=X6X=XR.R.R.R.",
"M.M.N.m.C i r i B V V V B j f F :X9X9X>X8.q.q.8.y.y.y.i.OX&X2X}.] _ _ _ & + @ @ w w w t -.j.-.j.c.c.c.7.m j g m =X6X5X5X.XE.E.E.",
"m.m.n.0.p 8 y i h B 5 5 5 x 5 A :X9X9X>Xw.q.8.0.i.y.y.i.OXOXOX}.] ^ _ ^ # @ @ @ 7 w 7 t &.j.&.j.c.c.b.j.N g g D 5XpX5X6X XR..XR.",
"N.N.N.m.Z p b B F F ' l l V c G XX>X9X:Xq.6.q.q.y.y.y.y.OXOX&X}.r._ ] ] = @ # = e t w z &.j.-.-.c.c.c.7.m z g H %X=X5X2XR.E.R.E.",
".X.X.X.Xp.t.t.u.Y.E.E.Y.8.8.0.8.1.1.7.<.S k S k m n c J ,X,X,XiX5X5X5X1XB 3 5 t #.#.#.#.h.j.7.7.n Q b Q R R R E V F l G L.T.L.T.",
".X.X.X.Xp.u.u.p.Q.Q.Q.Q.m.8.8.m.%.%.&.%.k B h z n z e V ,XpX,XiX6X4X4X5XV 5 t h #.$.%.%.1.1.7.7.b y u R R R T R 4 f ; j L.L.T.T.",
"<X.XXX.Xp.u.p.p.E.Q.Q.Y.b.w.b.8.1.%.&.%.V B j c n z v M ,XaXiXiX6X5X6X5XB 3 2 t #.<.#.#.m.1.j.7.b E E p R R R E f j f l L.T.L.T.",
"OXoXoX[.p.t.t.u.E.Q.Q.Q.8.8.8.0.<.<.<.%.V j c c x n v M ,X,X,XuX5X6X6X5XF h j V #.<.<.1.1.1.1.<.b Y u R R R R R f f 4 k L.T.T.T.",
"K ^ H _ C C p H K.Y.W.I.[ S D S M M ^ M b u b p p d d d C A d K oX+X+XoXH.F.F.F.m.m.2.2.H n Z Z R R U R i i 8 0 7 w : B E.:X-X-X",
"b Q W v u r q b U.Y.Y.I.D c S H n Q Q Q b E u b p d d d w w 7 x oX+X+X+XF.F.P.^.m.m.m.2.n p b p T R R R q 8 r 8 7 7 6 B XX:X-X-X",
"! ! ! b p p i C I.Y.Y.I.[ S S F ! ! n ! b v b b d d d ~ r t 8 A oX+X+X+X`.P.`.N.m.m.m.m.Z Q C b R R R T i 8 y i 7 7 & t -X:X:X:X",
"W n b W p r i Z I.Y.Y.I.J c S S ! ! ! ! p p p p E d d d i r 7 a oXoXoX|.N.~.P.F.m.2.m.2.n p b b R U U U 0 r 8 7 t t r V .X-X XXX",
"w w e w r p r Z z.z.z.z.V x c b E E ~ E P P P P q 0 q 0 P q q q B V B F C.Z.x.C.Z b Q v I I I I q 0 I 0 : : : y s.].].s.r.] ] ' ",
"3 w 3 w p t i B k.z.l.k.H t v x E E E E P P P P 0 0 0 0 P q P q w e 3 z z.J.x.C.b I Y Y I P I q 0 0 0 I 9 : & u ].[.[.].] A / ' ",
"w w 3 w p a r V k.z.z.k.c p n t E E E E P P P P 0 0 0 0 q P q q t x t V z.x.Z.C.n y R u I I I I 0 q , I : 9 & Y ].[.].].] / ] K ",
"e w e w t a i C v.z.z.v.S c c c ~ E E E P P P P 0 0 0 0 0 0 q q 5 e w h n.Z.x.C.W y T R I P I P 0 0 I I 9 > : u ].].}.].' A ] K ",
"V Z V c i i q d F.`.`.P.6.$.6.:.~ ~ ~ ~ R R q i U U U U y 0 y 0 = * O ; l.x.x.C.b y u u I I 0 0 P q q 0 : : % , ~.`.A.A.A x V V ",
"Z V Z A i 8 0 C `.`.`.(.6.<.6.:.^ ~ ~ ~ R q q R U U U U y w 0 w * @ O ; l.x.x.z.n Y T u I 0 I 0 q P I 0 : : % , ~.A.N.~.S x c c ",
"x b B b 8 i 0 a `.`.`.`.7.6.6.2.^ E ~ E i q i i U U U U 0 w y 0 @ @ O ; z.x.x.v.v u T u 0 I 0 I q P 0 0 : : & y A.A.^.A.S x V c ",
"K G L K i s q C ^.`.H.F.6.$.3.5._ ^ ^ ^ R R i U U U U U y 0 0 y = * + ; z.x.x.z.W u u u I 0 I 0 0 q q q : : & u N.N.P.N.S x c B ",
" XE. X XJ c c n z x x h x z 5 c q.i.w.i.a i u i y q Y i q I i q O O X * h.l.l.h.! Y T Y i 7 y i x x B x > ; = f 1.c.m.1.M n n n ",
"-X-X-X XL c H m w 3 , w 3 w , z i.M.D.w.b y p r i Y i U q q q q O * X 2 h.l.l.k.! y p E i i r r B x V h ; ; - ; 1.c.j.1.M v Z n ",
"Q.XXE.XXH z c c e e e 5 4 e 3 z w.w.w.w.C w r i Y i i U i U q q X O . * h.l.h.h.b Y E i 7 0 8 0 h x h e - - = 3 j.c.j.j.H b b C ",
"XX-X7XE.| L L K t 3 w w w e 3 x w.^.~.i.b i p p i q y q q q q 0 2 2 2 4 h.l.l.k.n T b b p p p b F F F F f 4 ; h 1.1.j.2.H Z Z Z ",
"Y.U.U.Y.aXsXsXpXA w t r @ # o 7 `..X X|.V 5 5 t < = < = 1 7 6 a %X1X%X%XH.F.F.F.<.:.:.<.~.~.w.~.3X3X*X+XM.m.c.0...` ) ) O.+.@. .",
"U.U.U.`.sXsXdXsXA w p r % % o 1  X-X-X'.V 5 h h 1 < < 1 < 7 # a 1X5X1X2XF.F.F.F.<.<.<.6.M.~.M.^.wXwXwXwXM.c.M.m.` ( ( ( +.@. .;.",
"L.U.U.Y.sXsXdXsXC 6 w 7 + $   7 |. X X|.j 2 5 5 = = = # # 6 @ r %XiXiX=XH.F.F.F.6.<.<.<.M.^.M.^.*XwXwX8XN.c.M.c.` ( ) ) @.@.#.@.",
"P.U.J.U.sXsXdXsX' x A B 7 = & 3  X X X XF B V B 5 5 5 5 t a r A $X%X%X%XD.F.D.D.<.:.:.:.M.~.~.M.8XwXwX*Xm.7.m.0.` ( ) }  .@.#. .",
"Q Z C K rXyXyXtXQ.Q.!.E.6.:.<.<.J.z.J.J.e.w.a.^._._.@X{.uXuXuXuXo.G [ G ` ) ..J K D K J H H n L =X*X=X=X .} | } b u t x v v v b ",
"i p 0 ^ rXyXrXtX;X!.;X!.7.<.<.6.n.n.n.C.^.^.^.^._._.oX{.uXiXuXuXG j l k M ) M M H H F Z n n v H =X6X6X*X| J } } t e p e u u u u ",
"p b u A rXyXyXyX;X!.!.!.1.<.<.7.J.C.C.n.^.^.^.^.{.{.{.{.iXiXiXuX| l D D ) ) ) ) H S H H n n z K =X5X*X,X| } J D t t t t u v u v ",
"p p y ^ eXyXrXrX;X!.!.!.2.<.<.<.v.n.n.v.^.a.^.s.{.{.{.{.uXuXuX%XG V F S M M ( ( Z H V F n n v H &X*X=X=X ...| | x r x t v u u u ",
"7 7 : w y.w.9.i.P.S.S.S.G m D D D D D [ { X.[ X.M.F.b.M.D F F S i i i i T Y Y Y i r y i ~ ~ Q _ i.D.e.~.%X1X1X$XZ x b b E R i E ",
"7 7 6 w :.2.:.9.S.S.S.A.D c m n S k m m G [ [ [ M.n.F.b.k f f f i q i U Y Y Y Y w 0 7 i ! ^ Q ^ w.D.M.~.5X5X6X1XZ b B C p R R s ",
"> 7 6 w 5.0.2.9.S.S.S.S.D n S m N l l l [ { [ X.b.F.b.M.S h j x i i q i Y Y Y Y y r w i ~ ^ ~ ( w.D.w.^.1X5X2X%X_ p b b E R s E ",
"7 7 6 r :.3.2.2.S.S.S.S.D m m H S S l l [ [ [ { M.b.F.b.l h g z i U i y Y I Y Y 0 y 8 y Q ^ ~ ^ w.M.w.^.5X5X5X%XZ b C b s E s R "
};
