/* XPM */
static char *c5bba8c0677f4fe29843ab66340f6c59MPBos90zQpdhlg16[] = {
/* columns rows colors chars-per-pixel */
"64 64 255 2 ",
"   c #1B101C",
".  c #3B001B",
"X  c #26191D",
"o  c #37171C",
"O  c #3F251A",
"+  c #000223",
"@  c #00002C",
"#  c #1D1B23",
"$  c #000035",
"%  c #0E0237",
"&  c #000038",
"*  c #170436",
"=  c #380328",
"-  c #241B26",
";  c #2C1D24",
":  c #351825",
">  c #331E24",
",  c #3B1C23",
"<  c #280636",
"1  c #310E31",
"2  c #241836",
"3  c #2B1C36",
"4  c #052529",
"5  c #182328",
"6  c #052934",
"7  c #192B34",
"8  c #01383B",
"9  c #1B373A",
"0  c #1C3A3A",
"q  c #2E2126",
"w  c #28272B",
"e  c #2C242A",
"r  c #332226",
"t  c #3B2426",
"y  c #33252A",
"u  c #3B262A",
"i  c #352B2E",
"p  c #3B2B2D",
"a  c #272736",
"s  c #2D2B33",
"d  c #342637",
"f  c #332D34",
"g  c #3C2E33",
"h  c #273338",
"j  c #2C3639",
"k  c #253A3A",
"l  c #2C3939",
"z  c #343335",
"x  c #3D3335",
"c  c #3A3936",
"v  c #333638",
"b  c #3C3539",
"n  c #343939",
"m  c #3C3838",
"M  c #480918",
"N  c #500912",
"B  c #48171B",
"V  c #531B1D",
"C  c #58181B",
"Z  c #6E0E0F",
"A  c #79060B",
"S  c #7A0417",
"D  c #66171A",
"F  c #791819",
"G  c #58251D",
"H  c #51291E",
"J  c #67271B",
"K  c #722D17",
"L  c #782719",
"P  c #450024",
"I  c #580229",
"U  c #451C23",
"Y  c #541D24",
"T  c #51083A",
"R  c #670225",
"E  c #750428",
"W  c #681C23",
"Q  c #721230",
"!  c #482526",
"~  c #432629",
"^  c #442B2D",
"/  c #4C2B2D",
"(  c #552626",
")  c #5C2525",
"_  c #522B2C",
"`  c #5D2C2B",
"'  c #49372C",
"]  c #56372C",
"[  c #432E32",
"{  c #492A35",
"}  c #582C34",
"|  c #433737",
" . c #4B3535",
".. c #443937",
"X. c #4B3A35",
"o. c #433639",
"O. c #4B3639",
"+. c #433838",
"@. c #4B3A3C",
"#. c #523535",
"$. c #5C3333",
"%. c #55383A",
"&. c #682525",
"*. c #642A26",
"=. c #642D2C",
"-. c #6D2C2D",
";. c #792525",
":. c #742C2C",
">. c #7C2A2A",
",. c #68362C",
"<. c #733525",
"1. c #79362C",
"2. c #662C32",
"3. c #732C32",
"4. c #633333",
"5. c #663937",
"6. c #773934",
"7. c #5B421A",
"8. c #7B471A",
"9. c #574225",
"0. c #4B4438",
"q. c #564635",
"w. c #5C5137",
"e. c #6F4D2E",
"r. c #685836",
"t. c #7E6729",
"y. c #746536",
"u. c #350F46",
"i. c #302E44",
"p. c #3C3942",
"a. c #4E1E46",
"s. c #433D42",
"d. c #4C3E42",
"f. c #593C45",
"g. c #6E3A41",
"h. c #374449",
"j. c #474448",
"k. c #574649",
"l. c #4E4C53",
"z. c #5C4B52",
"x. c #674647",
"c. c #784743",
"v. c #715351",
"b. c #775C52",
"n. c #4E5562",
"m. c #880E0B",
"M. c #9D0103",
"N. c #9A0607",
"B. c #9A150A",
"V. c #860417",
"C. c #930716",
"Z. c #861617",
"A. c #8B1B1C",
"S. c #9C1515",
"D. c #961816",
"F. c #951C1D",
"G. c #9A1A1B",
"H. c #A30103",
"J. c #AD0202",
"K. c #AA0608",
"L. c #A50D0E",
"P. c #AB0A0A",
"I. c #B30000",
"U. c #B90000",
"Y. c #B60B00",
"T. c #A91603",
"R. c #B31902",
"E. c #A70B14",
"W. c #A31313",
"Q. c #A81519",
"!. c #98290B",
"~. c #90330E",
"^. c #89291A",
"/. c #962715",
"(. c #873518",
"). c #AA2708",
"_. c #B62903",
"`. c #AA3E0D",
"'. c #BA3706",
"]. c #A92915",
"[. c #B52D14",
"{. c #A73617",
"}. c #840023",
"|. c #920E2E",
" X c #861C22",
".X c #A91D21",
"XX c #842526",
"oX c #8A2424",
"OX c #892A26",
"+X c #812929",
"@X c #912222",
"#X c #962925",
"$X c #863727",
"%X c #983826",
"&X c #8D2F32",
"*X c #A73624",
"=X c #AD3029",
"-X c #CC2F03",
";X c #C63807",
":X c #CE3521",
">X c #905019",
",X c #B94806",
"<X c #AC4B15",
"1X c #9E641D",
"2X c #AD6B1B",
"3X c #894527",
"4X c #944429",
"5X c #9B562A",
"6X c #8E4A34",
"7X c #AE4F28",
"8X c #857529",
"9X c #8E712E",
"0X c #9A7626",
"qX c #876A36",
"wX c #8A7736",
"eX c #AB6F29",
"rX c #C64A06",
"tX c #D54F09",
"yX c #CC7111",
"uX c #D05025",
"iX c #E36C28",
"pX c #894F4E",
"aX c #8B7244",
"sX c #9A6659",
"dX c #BE8919",
"fX c #968330",
"gX c #9C8635",
"hX c #AE8F2B",
"jX c #BA9B2A",
"kX c #A58C37",
"lX c #AA9436",
"zX c #B49B32",
"xX c #BAA429",
"cX c #BDA233",
"vX c #D28815",
"bX c #EDA913",
"nX c #C99326",
"mX c #C8A727",
"MX c #D9AB25",
"NX c #D8B72A",
"BX c #C3A934",
"VX c #CBB234",
"CX c #D5B833",
"ZX c #E4B828",
"AX c #DDC132",
"SX c #E7C82E",
"DX c #F1CE2C",
"FX c #F4D32E",
"GX c #FCDB2E",
"HX c #E8C933",
"JX c #F9D931",
"KX c #FFE42E",
"LX c #FFE730",
"PX c #A48E43",
"IX c #B79C59",
/* pixels */
"M Z K K | m | | | o.| | | ..o.| | +.+.i X o U | ..| ....2 $ f ..+...| | ..| | | | | ......o.c l k n o.| ....o.| | | o.| m  .<.~.",
"d ` K ,.| m | | | | | | ....| | ..m ..` Z Z o ' ..| g | qXgXr.d | +.| | | | | | | | | | m  .4.:.>.-. .m ..| | | | | ....n | <.(.",
"l.f.,.] | | | | | | | | | | | | o.m m XXH.V.o g o.o.2 x BXFXgX& x | | | | | | ..| | | | n #.@XI.I.G.#.n | | | | | | | ..c c ,.$X",
"IXPXq.d ..| | | | | | | | | | | ..m n oXY.A r x ..o.d x kXBXwX2 x o.| o.| | o...| | | o.l #.W.I.#X6. .n | | | | | | m | -.OX&.] ",
"GXCXw.$ | | | | | | | | | o.| | | m m OXI.A ; x ..m | | x x m ..| | | | | | | | | | | ..n  .S.Q.g.j.| | | | | | ..| m m @XJ.F U ",
"bXnXq.6 ..| | o.| ..| | ....| | ..n 9 +XJ.V., x ..o.| | d 2 g | ..| | o.| | | | | o.| | m  .:.3.f.s.o.| | | | | | | v m /.I.H.Z.",
"iXuX,.h ..| | | | | ..o.| | | | m ..#.oXJ.Z.~ [ ..o.o.| m | o.| | o.o.o.....| o.x ......o...` 2.O.@.o.| | | | o.| | n | XXP.I.I.",
"eXpX&._ ..o.| | | | | | | ....m l -.S.I.J. Xc m o...| | o.| ..| w ; U [ ....x $ $ x @...v  .oXG.$.n o.| | +...n l k n | #.3.G.I.",
"h.5.!.;.m n m | | | ..o.| o.| | x :.G.Q.G.-.n m | | | | | | | | U M U ~ | i %.wXwXq.g | l #.W.P.4.0 m m m z [ =.:.-.$.| 8 m @XI.",
"6 -.'.%Xl k c m ........| ..m  .&.-.g.g.4.@.l m | | | | | | |  .J D ! [ | $ r.AXAXr.$ | n  .S.L.$.8 n n n 7 Y S.J.P.XXc 8 ..F.I.",
"R B._.].>.-.,.` ^ p g c n c m  .*.$.j.p.m 3.:.O.l m c z c | o. .*.*. .p p < e.mXcXr.2 x n #.G.I.oX:.>.>.>./ ^ XXW.U.W.+X:.OXW.I.",
"J.J.I.J.J.B.Z.Z C B u x m | | | | | x v ..G.P.-.k m z y g | ....| | | z y V ) #.0.| | | l #.G.I.J.K.K.I.K.>.l l -.W.I.I.J.J.I.J.",
"F ;.:.G.I.I.H.H.N.N.C.oX@XXX$.k m x | v  .S.U.G.oX@X^.A.R & s +.o.| ..x x / / 2 2 b ....m  .-.@XK.I.I.I.J.+Xl 8 { F Z.oXoX X;.>.",
"^ x s.+XK.J.P.K.K.P.K.K.I.J.>.m | | ..n | oXJ.J.J.J.I.I.$Xw.0.m | | | | ..| +.| o.x | | ....0 $.W.I.J.I.J.>.v @.} Y Y } o.e g  .",
"F.F.S. X<.:.:.:.:.:.1.:.W.U.L.oX$.v | m ..4.:.:.:.:.}.I.nXCXwX% x | | | | | | | | | | | o.| 0 $.E.U.I.U.I.:.{ F.H.M.S   @ y  XS.",
"I.I.K.+Xk 0 n l j j 0 k >.L.I.L.4.l | | | m l l k 8 E J.MXHXgX& x o.o.| | | | | | | | | | | n $.D.H.W.W.Q.3.%.#X.XE.>X>Xe.W C.W.",
"U.W.-. .o.m | | m | m |  .2.W.L.4.k | | | x o.x m l >.J.5Xt.w.x | | | | | ..| | o...| | | | | { I R ` 4.g.f.z.v.v.|.dXCXvXK.|.f.",
"G.>.m k | | | | ....| | 0 | G.K.-.x | x c m m m n k +XJ.E & a +.| | | o.| | | | | ..| | | o.f w.gX9Xv 6 9 p.d.n.l.a.BXGXMX}.} i.",
"#.O...o.| | | ..| ..| | n #.G.J.Z.Y V u n n n m n 0 >.J.oXn m ..| | | ..| | ..| | | | | | | & wXHXNX] @ a a 7 7 & @ hXGXBX1 d [ ",
"v n ....| | | o.| | | | l #.G.P.$X+XS V.XXOXoXXXoXXXS.I.OXm m ..| | | c l m ......| ..| o.z * r.cXzX' I V.S S V.}.E 0XBXwX7 f o.",
"....| | | | | | | | | | v #.Q.Q.6X6X).R.J.J.J.J.I.J.J.J.+Xc m | | | | ..X. ...| | | | ..o.d o.o.c z v +XJ.R.R.Y.J.I. X{ i.......",
"o.| | | | | | | | o.| | l #.G.K.|.eXZXvX_.D.>.+X>.>.+X>.4.m m | | m b $X=X1.7 s g x g o.{ }  .x 3 a m Q #XnXMX1XS N.E 2 h ....o.",
"| | | | | | | ..| ..o...n O.G.I.H.yXSXMX{.-.9 k n n l n x ..| | o.m n %X;X$Xy > r d g g } $.O.x o.| | < 5.CXSX8X+ I ) ....| o.| ",
"| | | | | o.....| | o.o.n #.}.U.-XyX0XqX4. .m m m | m m | o.o...| m m 5.$X6.-.B : g y - p @. .| o.m n h X.eXyXe.+ o ~ ....| | | ",
"| | | | ....o.| | | | | 9 0.2XyXiX=Xa.& k x ..o.| | | | | | | ..| | | j k 5.6.,.$.{ y X i m | | o.X.5.{ { C.I.V.V o w ....o.o.| ",
"| | | | ....| | | | ..| & 0.NXHXIXv.d.d | | ..| ..| | | | | | ..| o.| | x | %.b.c./ i o.o...| | m 4.OXR < V.J.K.m.N - m m ..| | ",
"| | | ..| ..| ..o.x v ..:.5XmXBXsXn.s.g | o.| | | | | | | | o...| | | | ..z X.e.e./ t ....| | | n `  X9XhXnXnX5XXX2.` ,.$.x | o.",
"| o.....| | | | | o.k m 7XtX~.n n.z.o.| | | | | o...| | | | | ..| | | | ..m O.=.G , i | ..o.| | x { I jXFXGXAXPXa.e.$X$X-.g x x ",
"....| o...m z @ = 8.9.~ {.;XH.R k.j.o.| | | | | | | | ....o.| ..| | | | o.o.| / ! o r | +.| o...b 3 1 BXKXLXFXwX& f.6.L ) e f p ",
"| x | o.| | ' ] e.>X8.U V.J.I.Q.g.s...o.| | | | | | | | | | | | | | ..| o.| | o.p N ! ..| | | | ..d 2 lXDXJXAX8X$ s / D ( e e y ",
"i g [ f e M 3XmXmXqX} { } &XE.I.Q.+Xd.k l c ..| | | | | | | | | | | | | | ..| f ( L ;.| m ..| | o.o.d y.gXkXfXw.2 w I V.R w i i ",
"o , g : G >XdXDXHXaXu.{ s.%.oXJ.I.S.}  .4.#.o.| | ..| | | | | | | | | | | ..| s G ^.L ..m | | | o.+.+.3 & & & m c + >X2X>X1 ; u ",
"M B o I ~.mXFXKXHXb.* [ @.f.$.Z.J.H.Y F Q.>.n o.| | | | | | | | | | | | | +...z ( Z L o.x | | | | | n m g x x +.2 + fXDXdX. . o ",
"B B t I <.jXSXNXxXw.u...O.%.z _ @XZ.B A M.:.n m | | | | | | ..| ..| ......x g ^ H D ) o.| | | o.m #.,.$.| o.x d q.8XxXAXhXM = t ",
"X p o.O.#.<.8.8.e.^ x d. .^ |  .%.} o B C / ..m | | | | | | | | | | | +...z r H G V / | | | | m c ,.^.<.o.x o.$ wXSXVXr.g | | | ",
"e p m b b U I R D ~ x +.x p p x v c f D V.=.l ..| x | | ..| | | | | | +.| y > C D C ! | n n ....j _ L *.o.7 % $ gXGXCX3 & .. .| ",
"p p x p x d.x.5X>X/ s g p t p [ [ x m oXJ.;.m m | ......| | | | | | | o.| / G *.*.&._ +.| | o.| X.^ B t | X.X.$ wXSXVXX.* ..o...",
"x p p p g z 6.7X<X] 6 p p p n @.:.*.^ ^.-X].A.C c z.z...| ..| | | o.| v m $X%Xc.x.v.k.k.&XA.( y oXXX~ 1 e.zXVX8Xe.hXwX..z ..o.o.",
"p p p p p 4 ,.rXrX<.i g p | %.6.OX^.V ~.'.R.M.Z a.b.v.o.z | | | | | o.c #.{.uXc.n.n.l.z.&XI.A D J.E.-.I 8.NXSX0X. @ * o...| | | ",
"r t p p i 5 ` {.'.!.1.#.z / XX%X&X>.) &.Z.;.W ) :.%X&Xz 8 9 m ....m k $.^.P.R.c.j.k.p.b  XI.H.H.J.T.{.^.-.t.t.7.P { O...| | | | ",
"r u p g p i *.S.R._.$XO.f ( m.T.*X#X^.W ~ f x #.1.T.!.,.6.1.` z z { 2.>.^.F.#X2.p.[ w # Z.I.I.I.I.T.{.L G M M   H >.6. .m | | | ",
"x [ p x X./ &.N.Y._.~.^ q G F T.].].K.oX| x O.d.6.B.T.!.[.;X^.# 4 D L.A.$.x.x.d.x g e : m.I.I.I.U.N.G r ( D.H.B C H.@X .v | | | ",
"[ g p x o.^ F T._.%X<.g p _ ) $X;X;XR.XXj z @.@.5.>.OX^.{.{.:.! K !.R.F.x h.j.m y r - o m.I.N.m.D.L ; 4 u Z.C.V V D. X2 a ..| | ",
"p p g g p ~ L ).{.4.j | | | k ,.7XrX).;.i c +.| | | X...@.X.v 5.{.'.'.^., m d.u ; X   ; Z.J.m.O ! ~ y ; - ; r r u / { d x ......",
"z i w w U V.B.%X$XX.l | +.m l ] 4X{././.A.=.m m m m m n v j l %.1.<XtX<XU y o.y > ; - X F /.&.5 w e r r q 5 5 y ; + fXcXgXa & & ",
"x [ / G F N.T.<.....m ..o.....| / K /.T.J.>.v m | | | | | | ..x 8 6XtX,XU : y r q ; ; : D K ! ; ! ! r e i y q y * + hXDXzX3 @.r.",
"#.,.(.<X,X*X2.#.m ..| | | o.| | z -./.B.A.=.m o.| | | | | | | m v 5.4X$XD U e y q - X o m.T.C > K K , - w e y e w + >XvX5Xe.cXAX",
"4.$X{.rXyX3X8 v | | | | | ..| x l 1.].S.&.$.m x | | | | | | | |  .j 8 4.(.*.5 q ; - , C D.L.D ! e.1.! , t t r q X 5 S H.V.6XMXFX",
"1.@XJ.C.,.' ..| | | | ......o.m 9 $X;X-XN.3.n m | | | | | | ..o...c v 3X,XK + 4 - 5 ) OXOXOX&.$.x.x.} Y D U q # # # F )./.$X<X,X",
"5.5XvX1X4 7 ....| | | | ....| | l 6.<X_.I.>.k m | | | | | | ....o.v v 4X,X`.J U ; e =.6.6.5.5.f.z.d.%.2.=.! B Z F D L /.$Xe.2XyX",
"u.PXDXmX] p m | | | | | | | | | m  .` F.J.>.k c ..| | | | | o.o.| v z %XrXrX<XJ O ^  .@.z.x.z.k.@.o.%.f.k.^ D M.T./.^.&.= v.CXGX",
"i.aXBXjX!.*.k m | | | ..| | | | o.m f L B.G.>.} z x | +.| | o.o.o.c z %XrX`.(.!.^.( s b o.s.@.@.g [ @.@.d.{ Y  XZ.>.*./ 3 k.lXVX",
"g b s.oXI.+Xv o.| | | | | | | | | c c &.!.T.K.W 7 f g o.o...o.o.| x v 4X,XL ) {.{.G # > o X t ~ p [ ^ x ^  .O.u r x [ ^ [ g o.o.",
"o.b i.T E }.}.Y z | | | | | ....] ' s %X'.).S V w p # @ $ & 6 9 8 9 c 6.%X,.^ 1.1./ z p p p o o ; 5 4 e o.d.f.+XZ.~ s [ o.@.a.i.",
"@.O.s.k.r.7X,X<.7 x +.| | | m X.] ' c *X-X*XU , ; d ] r.y.y.e.g.5.$.| #.4.%.m z n | ..| ....! B ( H B t o.h.e..XH.V 4 p [ d.d.j.",
"g 2 * gXAXHXNX9X$ x | | | | | | X.x j =XtX[.-.} d < gXSXSXAXyX[.;X[.*.[ @.+.| m m |  .| ....z ] >X<XB.F y 6 _ E.M.V 4 y d x g g ",
"i @ @ jXGXLXHXgX& x ....o.| | | m v l *X-X{.-.%.b < gXSXHXZXyX-XuX:X*.f c o.| | ......| | | k 5.<X,XY.V.e B A J.H.Y 4 > y y y e ",
"u @ @ hXJXKXHXwX& o.| | | | | | | m m OXY.Z.^ @.d.o.q.e.y.>XrX:X7XpX#.c | | | | | | o.| | | l 4.].Y.I.Z.q Z.J.U.B.( 4 q > y i f ",
"- r.gXCXJXKXDXwX$ o.| | ..| | | o.m n oXJ.S 4 x O.g 2 @ @ = C.=XpXz.+.x | | | | | | | | | | n $.A.T._.^.g ;.G./.XX/ s p p u 2 $ ",
"& fXSXGXJXGXHXwX& x | | ..| | | o.m m XXJ.F 6 i g > y i i ^ ) *.a.p.| | | | | | | | | | | | m X.<.`.,X$Xb m  .| ..o.....| | g 3 ",
"& kXGXHXzXzXlXr.a m | | ..| | | | ..m *.F Z. XY 5 y > q g m [ ~ z c | | | | | | | ....| | | |  .( <.6X6.| n n n v | @...a q.lXVX",
"$ gXDXBX* & 2 g | | | | o.| | | | +...f U N.J.W 6 i i y g ../ #. ...| | | | | | | | o.| | | | | t [ j.j.| | | | | o.o...$ w.VXGX",
"d y.kXqX< * 3 x  .o.| | ..| | | | m m -.C.J.K.W 6 x o.[ t ! 4.5.X.o.| | | | | ..| | | | | | [ ^ 4.%.j.@.| | | | | | ....a @.0XnX",
"o.#.a.a.g g o.| | | | o...| | | ..m v oXI.I.E.&.6 [ s. .t B ,.6.#.c | | | | o...| | | | | | d / 5.c.k.j.| | | | | | ..+.m @.3.&X"
};
