/* XPM */
static char *result[] = {
/* columns rows colors chars-per-pixel */
"64 64 65 1 ",
"  c #000006",
". c #00000A",
"X c #0B050E",
"o c #010C0E",
"O c #0C0C0E",
"+ c #120D0F",
"@ c #12100F",
"# c #0F0F10",
"$ c #110F10",
"% c #1B0F15",
"& c #151110",
"* c #1E1411",
"= c #240D15",
"- c #221414",
"; c #281517",
": c #261914",
"> c #2C1A15",
", c #271418",
"< c #2B1718",
"1 c #2E1819",
"2 c #361F17",
"3 c #381F17",
"4 c #3C161A",
"5 c #32191A",
"6 c #3B1C1B",
"7 c #372017",
"8 c #382017",
"9 c #3B2119",
"0 c #3E281C",
"q c #451E1D",
"w c #481F1E",
"e c #41221D",
"r c #4B211E",
"t c #40281F",
"y c #4B2B1F",
"u c #50241F",
"i c #4F2320",
"p c #532520",
"a c #582721",
"s c #562821",
"d c #5A2922",
"f c #563526",
"g c #593727",
"h c #5B3928",
"j c #6E3227",
"k c #703327",
"l c #753629",
"z c #783729",
"x c #773929",
"c c #7D3B2B",
"v c #813D2C",
"b c #89422F",
"n c #9B4F34",
"m c #9D5134",
"M c #A45436",
"N c #A85637",
"B c #A95638",
"V c #AC5B3A",
"C c #B25E3D",
"Z c #B5623F",
"A c #BA6541",
"S c #C3774B",
"D c #C6794C",
"F c #C97A4D",
"G c #D48152",
/* pixels */
"888777929297779777790X-*-23399777997779777779779790:997777979779",
"MMMMMMMMMMMMMMMMMBMVDg.*yMMMMMMMMMMMMMMMMBMMMMMMmVSinMMMMMMMMMMM",
"cvcvcccccvccvvccccccADgXpcvvccccccvvvvccccvccccccbV0scvvcvcvcvcc",
"kkkklkljkklklkkkjlljkAD0qkkklkkkkkkkkkkkkklkkllljcm74kkkkkkkkkkk",
"zzzlzzlzzzzzzzzzzzlzkvV9qkclllclzzzzcczzlzlzlzlljvM9ezzzlzzzcxxz",
"lxzlllzllllllxlllllzkcm9qlllllllzzzkjkllzlzklllckcM7qllllzlzzkzz",
"lzlllzlzlzzlzklllzzzlcM3qlllzzxllkjsiskxlzlzzlzlkcM9qlllzlzklllz",
"lllzzlzllllzkplxzlzzkcM9qlzllkklkppkkklzzlzlzllzkbM7qlzlllllzzll",
"zlllzlzllllzkpklkxzzkcM3qjljpipisjkzzxlzlllzzlzlkcM9qlzllzzlllzl",
"llzllzkzzlzlljiiijzzjvM9,ippjljljdjzlllllzlllllzkcM9qlllzkllzlll",
"lzzlzksjllxkii<,<ixkpcM2<jljzzxzljskzllllllzlzlzkvM9qllzlplzllzl",
"lllllljiilki<<**;ijdjcm2qzxllzlkzlpkzlllllllllllkvM9qklljijzllll",
"lzzzlxzljii1,****1ijki2-wkzzzzzlzzllzllzzzzzzzxzkcm5-iijsjzxzllx",
"lklkjjlli<<<<*****<ii<**ijzklklllllllklkllkllllkpi9-*<1ijllklkll",
"wiiiiiii,%<<<<*****,%&&&;qwwiqwwwwqwiirqqwqwwewq;*o#@@#,iqiqwwww",
"******,6et<<<1<****2777>52227755570#-:-2222357325777227775775775",
"****:#2mBmclii1<<,pmBBmxMBMMMBMBMVFg  5mBBMMMMBMMMNMBBMMMBMMMBMM",
"<<1<;*-scvBBkq<1iikcccxdzcccccccccZFht>scccccccccccccccccccccccc",
"wwwq5;*eklccswiijkllljpjllllllllkkcCGF04jljllljllklkkkkkkljllkll",
"iqiqe<-rllkljijkslllxkplzllzllllzzklZC5qzzzzzlzzzxzxzzzzzzzzzzlz",
"rwrww1-wllllsjzzlllllpllllzzzllllzzkcmtqlllllzlzlllzzkzzkzkzlzll",
"wrwrw1*rlllllllllzlljpjlllllllzzllzkvm9qlljsijzllzckkzkzlzzllllz",
"rwrww<-rklllzlzlllllpjslzllzllllxlzkvM6qlllljdjzzzjpsjdkllzzlzll",
"wrwrw<*rllzllzllzlljsjsjzllllzzlllllvm6qzllzzjsjzjsjjsjzlzkzlllz",
"rwrww<-rlllzlzlzlzlsklllllzlllzllkajvM9qlzllllsjlijzzjdjlllzlllz",
"wrwrw<*rlllllzllllllllllzlzlzllllzjplm3qlzlzlljdjslzlljszzlzlzll",
"rwrwq<-rlzlzllzlzllllllllllllllllzzjdx5qllllllxjijllzlxllllllllz",
"wrwrw<-rllllzlllllllclllzzllllllxlllzm9qlzlzllzlilzlzllxllllzzll",
"rwiww1-eklzkzzllllllllllllllzllllllkvM9qlzllzllpjzllllllllllllll",
"wrwww1*1uklkzzlzzzllxllllzlkjcllzzllvMe6ikzllzkizzzzlllxxlllzllz",
"rwwww1--5iijljklllllllkkllj66klllllkcm8-1ikllkaklkljllllllllllll",
"wqqqqq=O+*,qqiwqwqqqwqiiwq<oo<qwqqqqqq*o#,qqqq,6iwiiqqqqqqqqqqqw",
"ddddddse37939>5939339tX*977997793999922977999790X-*-799293993939",
"MMMBMMMBMMMMmcMBMMMMVDh-mBMMMMMBMMMMMMMMMBMMMMVDg.&>mMMMMMMMMMMM",
"cccccccccvccdzcccvvccADtpccccccccvcvvvccccccccvADf&:dcvvcvccvcvc",
"kljlklkkkjjijxkjlkkkjcV94llkklkkkkkkkkkkkkljlkjzAFt.ijkkkklkkklk",
"zzzzzzxzksskzzzzzzzzlcm7izzzzzzxzzzzczkxzzlzzzllVGhXplzzzlclzzzl",
"llllzzljdkkzlzllzllllcM96lzllllklllllzzzlzlzlzllzZF0qlzllzzlzjiw",
"llllzjppjzzzzzzllzzzkcM7qllllzlpjzllzlzllllzlllzkvV9qlllllkiwi1<",
"lllxksjjpkzzkzlzlllllcM7qlzllzjplzzlllzlzllllzlzkcM3qklllpw1<<<<",
"lxkjskzlpjzlllzlzllzjcB9qlzlzkpjlllllllllllllzlzkvM9ekzlljiii<<<",
"zkppkzllkdkzlllzzllzkcM7qlzlxjpkzlzlzkdjzxzllllzlcM3wlzllzkljiii",
"jsjzzllllkllzllllllzlcM9qjxllsjzlzllllkpkklllzkzkcM9qllllzlzzljl",
"sjzllllllxlllllzlllzlcm7ikzzlkzzllllllzkppkzlzzzlcM3wlllllllllll",
"lzllllxlzlzlzllzzxlzji5,ijllzzzllxlzzllzljdlzlzxlcm7qlllzlzzllll",
"llklllllkllllllllllji1**<iklklkzllllklllllklklzklji-ikllllllllll",
"rrrriiiwrwwqqrewqwiq4*&##-qiwwwwqiqeqrrwiqqqwwqwiq$#<qwqqqeeqiqw",
"---**-%*-2332-27757797777752222357570$***27272725775222322757775",
"Oo@****&9mMBmdmBMMMMMMMMMMMMMMMMMMMVFg#*imMMBMMMMMNMMMMMMMMMMMMM",
"ee9><-**1dcvckdcvccccvcvvccvccvcccccAS0=jcccccccccccccvccvvcvccv",
"MMMcw<*<ijjkxkpjlklkllkkkllkkklkllljcV9qljklljkllkklklklllkklllk",
"ccvMx5*rkcllxzkplzlzzlzzzlzzczlzllzkcm3qlxzzzzzzlxxxzzzllzzzklzz",
"kklvM5#illlzlcjplllzlzzllllllllzllzkcM9qxzlllllllllzlllzzzzzppkz",
"zckcMi&illllxksjlllllllllllkakzlzlllcM9qxxllzzlzlzlzzlzllkzkljaj",
"llzkbm7qllzzlzjpllllzllzzzkpkllllllkcM9qllllkzlzlllllllllzlzllkp",
"zlljcM9elzzkzkdjllzzlllllzkpllzlzlllcM9qllzlpkzllzzllzzlzkzlzzzk",
"zllkvM3qlzlsjiwjalllzlzlzkaklllzllzjcM9qkllkpjzllllllzzlzzzklllz",
"llzlcM3qlllkp<1ijzllzlllllllzzlllzzlcM9qxclpjdjczlzzllllzkllllzl",
"lzlkcM9qlllxji<<ulzllllzllzlllzlzlzkcM94kkjpzjpkllllzlllzlzlzlll",
"lllkcM96lzzksji<rklzlllllllllllllzljcM9,iipjzzkzlzllllllllllllll",
"zxzkvM9qlzxkkzjpjuzxxxxlzzzzxxxxxzzkcM9o5rjclxzzzxzlzzxzzzzzzlll",
"kllkcm9qzlkjzjsjlklllklllklkkllkkkxjcm7#1rkllklkklklkkklkzkklllz",
"rrirru-<iriiw5qirurrrrrrrrrrrrrrirrrii-**>rrrrrrrriirrrriiiwwiiw",
"*****&*****,************-*****-******&*****-********************"
};
