/* XPM */
static char *a0zs9_y0h5g[] = {
/* columns rows colors chars-per-pixel */
"128 128 10 1 ",
"  c #151015",
". c #9A9F87",
"X c #EDE6CB",
"o c #314E3F",
"O c #1D3230",
"+ c #4F5D42",
"@ c #151D1A",
"# c #E8B26F",
"$ c #B6834C",
"% c white",
/* pixels */
"                                                                                                                                ",
"                                                                                                                                ",
"....XX  ..XX..XXXXXXXXXX......XX....XXXXXXXXXXXXXXXXXXXXXXXXXXXXXXXXXXXXXXXXXXXX..XX..XX..XXXXXXXXXXXXXXXXXXXXXXXXXXXX..  XXX...",
"....XX  ..XX..XXXXXXXXXX......XX....XXXXXXXXXXXXXXXXXXXXXXXXXXXXXXXXXXXXXXXXXXXX..XX..XX..XXXXXXXXXXXXXXXXXXXXXXXXXXXX..  X.XX..",
"X.....                                                                                                                    XX....",
"XX....                                                                                                                    X.....",
"..... oooooooooooooooooooooooooooooooooooooooooooooooooooooooooooooooooooooooooooooooooooooooooooooooooooooooooooooooooooo XXX.X",
"..... oooooooooooooooooooooooooooooooooooooooooooooooooooooooooooooooooooooooooooooooooooooooooooooooooooooooooooooooooooo X.XX.",
".X... o..................................................................................................................o XX...",
"XX.. o....................................................................................................................o XX..",
"... o......................................................................................................................o XX.",
".. o........................................................................................................................o XX",
". o..                                                                                                                      ..o X",
"  o.                                                                                                                        .o  ",
"oo.. OOOOOOOOOOOOOOOOOOOOOOOOOOOOOOOOOO oooooo OOOOOOOOOOOOOOOOOOOOOOOOOOOOOOOOOO oooooo OOOOOOOOOOOOOOOOOOOOOOOOOOOOOOOOOO ..oo",
".X.. OO+X..+.....X+....+X.......++..+OO oooooo OO+..++.......X+....+X.....+..X+OO oooooo OO+X..+.....X+....+X.......++..+OO ..X.",
".X.. O.+X..X++..++...@@@@++..+++.X...+O ...... O+...X.+++..+++X@@@@.++..++X..X+.O ...... O.+X..X++..++...@@@@++..+++.X...+O ..X.",
".X.. O.+X.XX..++XX..@+@+@XX++.....X..+O ...... O+..X.....++XXX@+@+@.XX++..XX.X+.O ...... O.+X.XX..++XX..@+@+@XX++.....X..+O ..X.",
".X.. +.+XXX.....+..@+X@.@.XXX+....X.X++ ...... ++X.X....+XXX.@++@.@..+.....XXX+.+ ...... +.+XXX.....+..@+X@.@.XXX+....X.X++ ..X.",
".X.. ++.+.....XX+..@@@@.@.....+....X+.+ ...... +.+X....+.....@@@@X@..+XX.....+.++ ...... ++.+.....XX+..@@@@.@.....+....X+.+ ..X.",
".X.. +X.+....XX..+.@+++.@....+X+..X+..+ ..XX.. +..+X..+X+....@++++@.+..XX....+.X+ XXXX.. +X.+....XX..+.@+++.@....+X+..X+..+ ..X.",
".X.. +XX+...XX....+@+...@....+.+..+...+ ..XX.. +...+..+.+....@...+@+....XX...+XX+ XXXX.. +XX+...XX....+@+...@....+.+..+...+ ..X.",
".X.. +.XX+.XX......@@@@@@..X+X.X++X...+ ..XXXX +...X++X.X+X..@@@@@@......XX.+XX.+ ...... +.XX+.XX......@@@@@@..X+X.X++X...+ ..X.",
".X.. +..XX+X...XXXXXX+...XX+.XXX+XX...+ ..XXXX +...XX+XXX.+XX...+XXXXXX...X+XX..+ ...... +..XX+X...XXXXXX+...XX+.XXX+XX...+ ..X.",
".X.. +.X..++.XXX...X+X+..++......+XX+++ ....XX +++XX+......++..+X+X...XXX.++..X.+ ..XX.. +.X..++.XXX...X+X+..++......+XX+++ ..X.",
".X.. +X...+X+++...++.XX++X........++X.+ ....XX +.X++........X++XX.++...+++X+...X+ ..XX.. +X...+X+++...++.XX++X........++X.+ ..X.",
".X.. +X...+.X..+++....X.+XX......+..XX+ ..XXXX +XX..+......XX+.X....+++..X.+...X+ ...... +X...+.X..+++....X.+XX......+..XX+ ..X.",
".X.. +X...+.X.+.......XX+.X.....+....X+ ..XXXX +X....+.....X.+XX.......+.X.+...X+ ...... +X...+.X.+.......XX+.X.....+....X+ ..X.",
".X.. +.X++.XX.+........X.+XXX...+....X+ ...... +X....+...XXX+.X........+.XX.++X.+ ....XX +.X++.XX.+........X.+XXX...+....X+ ..X.",
".X.. +.+XXXXX+.+.......XX.+.XXX..+..XX+ ...... +XX..+..XXX.+.XX.......+.+XXXXX+.+ ....XX +.+XXXXX+.+.......XX.+.XXX..+..XX+ ..X.",
".X.. ++XX.XX+XX+...XXXXXXXX++.XX+.+XX.+ XXXX.. +.XX+.+XX.++XXXXXXXX...+XX+XX.XX++ ...... ++XX.XX+XX+...XXXXXXXX++.XX+.+XX.+ ..X.",
".X.. +......+XXX+XXX+++.XX...+++XX+...+ XXXX.. +...+XX+++...XX.+++XXX+XXX+......+ ...... +......+XXX+XXX+++.XX...+++XX+...+ ..X.",
".X.. +....++.X..+.++...+.XXX+XXX.XX+..+ ..XX.. +..+XX.XXX+XXX.+...++.+..X.++....+ ..XX.. +....++.X..+.++...+.XXX+XXX.XX+..+ ..X.",
".X.. X...+...X...+......+..+X..X++XX+.X ..XX.. X.+XX++X..X+..+......+...X...+...X ..XX.. X...+...X...+......+..+X..X++XX+.X ..X.",
".X..  XXXXXXXXXXXXXXXXXXXXXXXXXXXXXXXX  XX....  XXXXXXXXXXXXXXXXXXXXXXXXXXXXXXXX  XXXX..  XXXXXXXXXXXXXXXXXXXXXXXXXXXXXXXX  ..X.",
".X...                                  .XX.....                                  .XXXX...                                  ...X.",
".X........................................XX..................................................................................X.",
".X........................................XX..................................................................................X.",
".X...                                  ........                                  ........                                  ...X.",
".X..  OOOOOOOOOOOOOOOOOOOOOOOOOOOOOOOO  ......  OOOOOOOOOOOOOOOOOOOOOOOOOOOOOOOO  ......  OOOOOOOOOOOOOOOOOOOOOOOOOOOOOOOO  ..X.",
".X.. OO...X.+++..+++X.....++..++X..X+OO ...... OO+X..X++..++.....X+++..+++.X...OO ...... OO+X..X++..++.....X+++..+++.X...OO ..X.",
".X.. O+..X.....++XXX+X....XX++..XX.X+.O ...... O.+X.XX..++XX....X+XXX++.....X..+O ...... O.+X.XX..++XX....X+XXX++.....X..+O ..X.",
".X.. ++X.X....+XXX...@@@@..+.....XXX+.+ ....XX +.+XXX.....+....@@@@.XXX+....X.X++ ..XX.. +.+XXX.....+....@@@@.XXX+....X.X++ ..X.",
".X.. +.+X....+......@+@+@..+XX.....+.++ ....XX ++.+.....XX+...@+@+@.....+....X+.+ ..XX.. ++.+.....XX+...@+@+@.....+....X+.+ ..X.",
".X.. +..+X..+X+....@+.@+@.+..XX....+.X+ ....XX +X.+....XX..+.@+.@.@....+X+..X+..+ ...... +X.+....XX..+.@+.@.@....+X+..X+..+ ..X.",
".X.. +...+..+.+....@@@@+@+....XX...+XX+ ....XX +XX+...XX....+@@@@.@....+.+..+...+ ...... +XX+...XX....+@@@@.@....+.+..+...+ ..X.",
".X.. +...X++X.X+X..@++++@......XX.+XX.+ ....XX +.XX+.XX......@+++.@..X+X.X++X...+ ..XX.. +.XX+.XX......@+++.@..X+X.X++X...+ ..X.",
".X.. +...X++X.X+X..@...+@......XX.+XX.+ ....XX +.XX+.XX......@+...@..X+X.X++X...+ ..XX.. +.XX+.XX......@+...@..X+X.X++X...+ ..X.",
".X.. +...XX+XXX.+XX@@@@@@XXXX...X+XX..+ ..XX.. +..XX+X...XXXX@@@@@@XX+.XXX+XX...+ ..XX.. +..XX+X...XXXX@@@@@@XX+.XXX+XX...+ ..X.",
".X.. +++XX+......++..+X+X...XXX.++..X.+ ..XX.. +.X..++.XXX...X+X+..++......+XX+++ ..XX.. +.X..++.XXX...X+X+..++......+XX+++ ..X.",
".X.. +.X++........X++XX.++...+++X+...X+ ..XX.. +X...+OO++...++.XX++XOO.OO..OO+X.+ ..XX.. +X...+X+++...++.XX++X........++X.+ ..X.",
".X.. +XX..+......XX+.X....+++..X.+...X+ ..XX.. +X..OO##O.+++....X.OO##O##OO##OXX+ ..XX.. +X...+.X..+++....X.+XX......+..XX+ ..X.",
".X.. +X....+.....X.+XX.......+.X.+...X+ ...... +X.O##$$OOO....OOOO##$$O$$O#$$O.X+ ..XXXX +X...+.X.+.......XX+.X.....+....X+ ..X.",
".X.. +X....+...XXX+.X........+.XX.++X.+ ...... +.XO$$$$O##OOOO###O$$$$O$$#$$$O.X+ ..XXXX +.X++.XX.+........X.+XXX...+....X+ ..X.",
".X.. +XX..+..XXX.+.XX.......+.+XXXXX+.+ ...... +.+XOO$$O$$O##O$$$OOO$$O$$$O$$OXX+ ...... +.+XXXXX+.+.......XX.+.XXX..+..XX+ ..X.",
".X.. +.XX+.+XX.++XXXXXXXX...+XX+XX.XX++ ...... ++XXOO$$O$$O$$O$$$OOO$$O$$OO$$OX.+ ...... ++XX.XX+XX+...XXXXXXXX++.XX+.+XX.+ ..X.",
".X.. +...+XX+++...XX.+++XXX+XXX+......+ ....XX +..O##$$OO$$$$$$$OO##$$O$$OO$$O..+ ...... +......+XXX+XXX+++.XX...+++XX+...+ ..X.",
".X.. +..+XX.XXX+XXX.+...++.+..X.++....+ ....XX +..O$$$OOO$$OO$$$OO$$$OO$$OO$$O..+ ...... +....++.X..+.++...+.XXX+XXX.XX+..+ ..X.",
".X.. X.+XX++X..X+..+......+...X...+...X ...... X...OOOOX.OOO.OOOO.OOOOXOOO+OOO+.X ...... X...+...X...+......+..+X..X++XX+.X ..X.",
".X.. X.+XX++X..X+..+......+...X...+...X ...... X...+...X...+......+..+X..X++XX+.X ...... X...+...X...+......+..+X..X++XX+.X ..X.",
".X..  XXXXXXXXXXXXXXXXXXXXXXXXXXXXXXXX  ..XX..  XXXXXXXXXXXXXXXXXXXXXXXXXXXXXXXX  ......  XXXXXXXXXXXXXXXXXXXXXXXXXXXXXXXX  ..X.",
".X...                                  ...XX...                                  ........                                  ...X.",
".X..................................................................................XX........................................X.",
".X..................................................................................XX........................................X.",
".X...                                  .....XX.                                  ........                                  ...X.",
".X..  OOOOOOOOOOOOOOOOOOOOOOOOOOOOOOOO  ....XX  OOOOOOOOOOOOOOOOOOOOOOOOOOOOOOOO  ......  OOOOOOOOOOOOOOOOOOOOOOOOOOOOOOOO  ..X.",
".X.. OO+X..X++..++.....X+++..+++.X...OO ..XXXX OO...X.+++..+++X.....++..++X..X+OO ..XXXX OO...X.+++..+++X.....++..++X..X+OO ..X.",
".X.. O.+X.XX..++XX....X+XXX++.....X..+O ..XXXX O+..X.....++XXX+X....XX++..XX.X+.O ..XXXX O+..X.....++XXX+X....XX++..XX.X+.O ..X.",
".X.. +.+XXX.....+....@@@@.XXX+....X.X++ ..XXXX ++X.X....+XXX...@@@@..+.....XXX+.+ XXXX.. ++X.X....+XXX...@@@@..+.....XXX+.+ ..X.",
".X.. ++.+.....XX+...@+@+@.....+....X+.+ ..XXXX +.+X....+......@+@+@..+XX.....+.++ XXXX.. +.+X....+......@+@+@..+XX.....+.++ ..X.",
".X.. +X.+....XX..+.@+.@.@....+X+..X+..+ ...... +..+X..+X+....@+.@+@.+..XX....+.X+ XX.... +..+X..+X+....@+.@+@.+..XX....+.X+ ..X.",
".X.. +XX+...XX....+@@@@.@....+.+..+...+ ...... +...+..+.+....@@@@+@+....XX...+XX+ XX.... +...+..+.+....@@@@+@+....XX...+XX+ ..X.",
".X.. +.XX+.XX......@+++.@..X+X.X++X...+ ...... +...X++X.X+X..@++++@......XX.+XX.+ ...... +...X++X.X+X..@++++@......XX.+XX.+ ..X.",
".X.. +.XX+.XX......@+...@..X+X.X++X...+ ...... +...X++X.X+X..@...+@......XX.+XX.+ ...... +...X++X.X+X..@...+@......XX.+XX.+ ..X.",
".X.. +..XX+X...XXXX@@@@@@XX+.XXX+XX...+ ..XX.. +...XX+XXX.+XX@@@@@@XXXX...X+XX..+ ...... +...XX+XXX.+XX@@@@@@XXXX...X+XX..+ ..X.",
".X.. +.X..++.XXX...X+X+..++......+XX+++ ..XX.. +++XX+......++..+X+X...XXX.++..X.+ ...... +++XX+......++..+X+X...XXX.++..X.+ ..X.",
".X.. +X...+X+++...++.XX++X........++X.+ ..XX.. +.X++........X++XX.++...+++X+...X+ ....XX +.X++........X++XX.++...+++X+...X+ ..X.",
".X.. +X...+.X..+++....X.+XX......+..XX+ ..XX.. +XX..+......XX+.X....+++..X.+...X+ ....XX +XX..+......XX+.X....+++..X.+...X+ ..X.",
".X.. +X...+.X.+.......XX+.X.....+....X+ ..XX.. +X....+.....X.+XX.......+.X.+...X+ ...... +X....+.....X.+XX.......+.X.+...X+ ..X.",
".X.. +.X++.XX.+........X.+XXX...+....X+ ..XX.. +X....+...XXX+.X........+.XX.++X.+ ...... +X....+...XXX+.X........+.XX.++X.+ ..X.",
".X.. +.+XXXXX+.+.......XX.+.XXX..+..XX+ ...... +XX..+..XXX.+.XX.......+.+XXXXX+.+ ..XX.. +XX..+..XXX.+.XX.......+.+XXXXX+.+ ..X.",
".X.. ++XX.XX+XX+...XXXXXXXX++.XX+.+XX.+ ...... +.XX+.+XX.++XXXXXXXX...+XX+XX.XX++ ..XX.. +.XX+.+XX.++XXXXXXXX...+XX+XX.XX++ ..X.",
".X.. +......+XXX+XXX+++.XX...+++XX+...+ ..XX.. +...+XX+++...XX.+++XXX+XXX+......+ ..XX.. +...+XX+++...XX.+++XXX+XXX+......+ ..X.",
".X.. +....++.X..+.++...+.XXX+XXX.XX+..+ ..XX.. +..+XX.XXX+XXX.+...++.+..X.++....+ ..XX.. +..+XX.XXX+XXX.+...++.+..X.++....+ ..X.",
".X.. X...+...X...+......+..+X..X++XX+.X ....XX X.+XX++X..X+..+......+...X...+...X ..XX.. X.+XX++X..X+..+......+...X...+...X ..X.",
".X.. X...+...X...+......+..+X..X++XX+.X ....XX X.+XX++X..X+..+......+...X...+...X ..XX.. X.+XX++X..X+..+......+...X...+...X ..X.",
".X..  XXXXXXXXXXXXXXXXXXXXXXXXXXXXXXXX  ......  XXXXXXXXXXXXXXXXXXXXXXXXXXXXXXXX  ......  XXXXXXXXXXXXXXXXXXXXXXXXXXXXXXXX  ..X.",
".X...                                  ........                                  ........                                  ...X.",
".X............................XXXX........XX..................XX........XXXX............................XX............XX..XX..X.",
".X............................XXXX........XX..................XX........XXXX............................XX............XX..XX..X.",
".X........................XXXXXX................................XX....XXXX................XXXXXXXX..........XXXXXX............X.",
".X........................XXXXXX................................XX....XXXX................XXXXXXXX..........XXXXXX............X.",
"..++++++++++++++++++++++++++++++++++++++++++++++++++++++++++++++++++++++++++++++++++++++++++++++++++++++++++++++++++++++++++++..",
"..++++++++++++++++++++++++++++++++++++++++++++++++++++++++++++++++++++++++++++++++++++++++++++++++++++++++++++++++++++++++++++..",
"                                                                                                                                ",
"                                                                                                                                ",
"XXXXXXXXXXXXXXXXXXXXXXXXXXXXXXXXXXXXXXXXXXXXXXXXXXXXXXXXXXXXXXXXXXXXXXXXXXXXXXXXXXXXXXXXXXXXXXXXXXXXXXXXXXXXXXXXXXXXXXXXXXXXXXXX",
"XXXXXXXXXXXXXXXXXXXXXXXXXXXXXXXXXXXXXXXXXXXXXXXXXXXXXXXXXXXXXXXXXXXXXXXXXXXXXXXXXXXXXXXXXXXXXXXXXXXXXXXXXXXXXXXXXXXXXXXXXXXXXXXX",
"                                                                                                                                ",
"                                                                                                                                ",
"................................................................................................................................",
"................................................................................................................................",
"XXXX..........XXXXXX....................XX............XX..................................XX..........XX......XX......XX........",
"XXXX..........XXXXXX....................XX............XX..................................XX..........XX......XX......XX........",
"XX......XX..XX..XX....XX....................XXXXXX..XX..............XXXXXXXX..XX......XX....XXXX........XX....XXXXXXXX....XXXXXX",
"XX......XX..XX..XX....XX....................XXXXXX..XX..............XXXXXXXX..XX......XX....XXXX........XX....XXXXXXXX....XXXXXX",
"............................XXXX....XX........XXXX..........XX....XXXX..............XXXXXXXXXX........XX............XXXXXXXX....",
"............................XXXX....XX........XXXX..........XX....XXXX..............XXXXXXXXXX........XX............XXXXXXXX....",
"........XXXXXXXXXXXX........XX....XXXX..........XX................XX................XXXXXX........XX..XXXX......................",
"........XXXXXXXXXXXX........XX....XXXX..........XX................XX................XXXXXX........XX..XXXX......................",
"..XXXXXXXX....XX..XXXX....................XXXXXXXXXXXXXXXX......XXXX........XXXXXX..................XXXX....XX....XX........XXXX",
"..XXXXXXXX....XX..XXXX....................XXXXXXXXXXXXXXXX......XXXX........XXXXXX..................XXXX....XX....XX........XXXX",
"XXXX................XXXX....XXXXXXXXXXXXXX........XX....XX................XX........XX..........XXXXXX......XXXX..XX..........XX",
"XXXX................XXXX....XXXXXXXXXXXXXX........XX....XX................XX........XX..........XXXXXX......XXXX..XX..........XX",
"XX......XX............XX......................XX......XXXX..........XX....XXXX..............XXXXXX......XX..XXXX..XXXX..........",
"XX......XX............XX......................XX......XXXX..........XX....XXXX..............XXXXXX......XX..XXXX..XXXX..........",
"............XX........XXXX..........XXXXXX..XXXX......XXXXXX................XXXXXX......XXXXXX......................XXXX....XX..",
"............XX........XXXX..........XXXXXX..XXXX......XXXXXX................XXXXXX......XXXXXX......................XXXX....XX..",
"..XXXXXXXXXXXXXXXX......XXXXXXXXXXXXXX..XXXX......XX......XXXXXXXX......XXXXXXXXXX..XX..XXXXXXXXXXXXXXXXXX............XX........",
"..XXXXXXXXXXXXXXXX......XXXXXXXXXXXXXX..XXXX......XX......XXXXXXXX......XXXXXXXXXX..XX..XXXXXXXXXXXXXXXXXX............XX........",
"................XXXXXX....XXXX............XXXXXX................XX..XXXXXX....XX....XX......XX..........XXXXXXXX......XXXX......",
"................XXXXXX....XXXX............XXXXXX................XX..XXXXXX....XX....XX......XX..........XXXXXXXX......XXXX......",
"....................XX..........................................XXXXXX........................................XX....XXXXXXXXXXXX",
"....................XX..........................................XXXXXX........................................XX....XXXXXXXXXXXX",
"XXXXXXXXXXXXXXXXXXXXXXXXXXXXXXXXXXXXXXXXXXXXXXXXXXXXXXXXXXXXXXXXXXXXXXXXXXXXXXXXXXXXXXXXXXXXXXXXXXXXXXXXXXXXXXXXXXXXXXXXXXXXXXXX",
"XXXXXXXXXXXXXXXXXXXXXXXXXXXXXXXXXXXXXXXXXXXXXXXXXXXXXXXXXXXXXXXXXXXXXXXXXXXXXXXXXXXXXXXXXXXXXXXXXXXXXXXXXXXXXXXXXXXXXXXXXXXXXXXX",
"                                                                                                                                ",
"                                                                                                                                "
};
